<?xml version="1.0" encoding="utf-8"?>
<!-- Generator: Adobe Illustrator 17.0.0, SVG Export Plug-In . SVG Version: 6.00 Build 0)  -->
<!DOCTYPE svg PUBLIC "-//W3C//DTD SVG 1.1//EN" "http://www.w3.org/Graphics/SVG/1.1/DTD/svg11.dtd">
<svg version="1.1" id="Layer_1" xmlns="http://www.w3.org/2000/svg" xmlns:xlink="http://www.w3.org/1999/xlink" x="0px" y="0px"
	 width="1750px" height="980px" viewBox="0 0 1750 980" enable-background="new 0 0 1750 980" xml:space="preserve">
<g>
	<rect fill-rule="evenodd" clip-rule="evenodd" fill="#002569" width="1750" height="980"/>
	<path fill-rule="evenodd" clip-rule="evenodd" fill="#00215E" d="M0,452c872.4-133.7,802.7,332.2,1750,159V0H0V452z"/>
	<path fill-rule="evenodd" clip-rule="evenodd" fill="#011E54" d="M0,283.8C810.5-20.8,1260,469.5,1750,490V0H0V283.8z"/>
</g>
<path fill-rule="evenodd" clip-rule="evenodd" fill="#001845" d="M0,490h178.6l75.4,75.4h215l65.3,65.3
	c1.8-27.4,16.9-30.8,41.4-17.7c6.3-13.7,18-8,31.1,3c-4.2-16.2,0.8-20.3,11.9-16.3c11.9-22.4,23.7-17.1,35.6,7.4
	c8.1-3.1,10.6,1.6,5.9,16.3c8.9-8.7,20.3-11,34.1-7.4c-20.3-11.9-30.1-24.1-19.3-37.1c-7.9-12.5-1-16.6,23.7-10.4
	c-14.5-13.5-17.7-23.5-4.4-28.1c6.5-17.9,15.8-10.3,26.7,11.8c0.2-18.3,8.2-24.6,26.7-14.8c9.8-7.1,15.4-4.3,17.8,5.9h164.5V487
	h-29.6l102.2-102.2h497.8l78.5,78.5l65.2-65.2h106V980H0V490z"/>
<g>
	<g>
		<g>
			<polygon fill-rule="evenodd" clip-rule="evenodd" fill="#0B0D1F" points="1285.9,858.5 1325.1,858.5 1325.1,767.8 1305.5,746.5 
				1285.9,767.8 			"/>
			<polygon fill-rule="evenodd" clip-rule="evenodd" fill="#0A747A" points="1290.7,858.5 1285.9,858.5 1285.9,767.8 1305.5,746.5 
				1307.9,749.1 1290.7,767.8 			"/>
		</g>
		<g>
			<polygon fill-rule="evenodd" clip-rule="evenodd" fill="#0B0D1F" points="1339,858.5 1378.3,858.5 1378.3,767.8 1358.6,746.5 
				1339,767.8 			"/>
			<polygon fill-rule="evenodd" clip-rule="evenodd" fill="#0A747A" points="1343.8,858.5 1339,858.5 1339,767.8 1358.6,746.5 
				1361,749.1 1343.8,767.8 			"/>
		</g>
		<g>
			<polygon fill-rule="evenodd" clip-rule="evenodd" fill="#0B0D1F" points="1392.1,858.5 1431.4,858.5 1431.4,767.8 1411.7,746.5 
				1392.1,767.8 			"/>
			<polygon fill-rule="evenodd" clip-rule="evenodd" fill="#0A747A" points="1396.9,858.5 1392.1,858.5 1392.1,767.8 1411.7,746.5 
				1414.1,749.1 1396.9,767.8 			"/>
		</g>
		<g>
			<polygon fill-rule="evenodd" clip-rule="evenodd" fill="#0B0D1F" points="1445.2,858.5 1484.5,858.5 1484.5,767.8 1464.9,746.5 
				1445.2,767.8 			"/>
			<polygon fill-rule="evenodd" clip-rule="evenodd" fill="#0A747A" points="1450,858.5 1445.2,858.5 1445.2,767.8 1464.9,746.5 
				1467.2,749.1 1450,767.8 			"/>
		</g>
		<g>
			<polygon fill-rule="evenodd" clip-rule="evenodd" fill="#0B0D1F" points="1498.3,858.5 1537.6,858.5 1537.6,767.8 1517.9,746.5 
				1498.3,767.8 			"/>
			<polygon fill-rule="evenodd" clip-rule="evenodd" fill="#0A747A" points="1503.1,858.5 1498.3,858.5 1498.3,767.8 1517.9,746.5 
				1520.4,749.1 1503.1,767.8 			"/>
		</g>
		<g>
			<polygon fill-rule="evenodd" clip-rule="evenodd" fill="#0B0D1F" points="1551.4,858.5 1590.7,858.5 1590.7,767.8 1571,746.5 
				1551.4,767.8 			"/>
			<polygon fill-rule="evenodd" clip-rule="evenodd" fill="#0A747A" points="1556.2,858.5 1551.4,858.5 1551.4,767.8 1571,746.5 
				1573.5,749.1 1556.2,767.8 			"/>
		</g>
		<g>
			<polygon fill-rule="evenodd" clip-rule="evenodd" fill="#0B0D1F" points="1604.5,858.5 1643.8,858.5 1643.8,767.8 1624.2,746.5 
				1604.5,767.8 			"/>
			<polygon fill-rule="evenodd" clip-rule="evenodd" fill="#0A747A" points="1609.3,858.5 1604.5,858.5 1604.5,767.8 1624.2,746.5 
				1626.6,749.1 1609.3,767.8 			"/>
		</g>
		<g>
			<polygon fill-rule="evenodd" clip-rule="evenodd" fill="#0B0D1F" points="1657.6,858.5 1696.9,858.5 1696.9,767.8 1677.3,746.5 
				1657.6,767.8 			"/>
			<polygon fill-rule="evenodd" clip-rule="evenodd" fill="#0A747A" points="1662.5,858.5 1657.6,858.5 1657.6,767.8 1677.3,746.5 
				1679.7,749.1 1662.5,767.8 			"/>
		</g>
		<g>
			<polygon fill-rule="evenodd" clip-rule="evenodd" fill="#0B0D1F" points="1710.7,858.5 1750,858.5 1750,767.8 1730.4,746.5 
				1710.7,767.8 			"/>
			<polygon fill-rule="evenodd" clip-rule="evenodd" fill="#0A747A" points="1715.6,858.5 1710.7,858.5 1710.7,767.8 1730.4,746.5 
				1732.8,749.1 1715.6,767.8 			"/>
		</g>
	</g>
	<g>
		<g>
			<polygon fill-rule="evenodd" clip-rule="evenodd" fill="#0B0D1F" points="0,858.5 39.3,858.5 39.3,767.8 19.6,746.5 0,767.8 			
				"/>
			<polygon fill-rule="evenodd" clip-rule="evenodd" fill="#0A747A" points="4.8,858.5 0,858.5 0,767.8 19.6,746.5 22.1,749.1 
				4.8,767.8 			"/>
		</g>
		<g>
			<polygon fill-rule="evenodd" clip-rule="evenodd" fill="#0B0D1F" points="53.1,858.5 92.4,858.5 92.4,767.8 72.7,746.5 
				53.1,767.8 			"/>
			<polygon fill-rule="evenodd" clip-rule="evenodd" fill="#0A747A" points="57.9,858.5 53.1,858.5 53.1,767.8 72.7,746.5 
				75.1,749.1 57.9,767.8 			"/>
		</g>
		<g>
			<polygon fill-rule="evenodd" clip-rule="evenodd" fill="#0B0D1F" points="106.2,858.5 145.5,858.5 145.5,767.8 125.9,746.5 
				106.2,767.8 			"/>
			<polygon fill-rule="evenodd" clip-rule="evenodd" fill="#0A747A" points="111,858.5 106.2,858.5 106.2,767.8 125.9,746.5 
				128.2,749.1 111,767.8 			"/>
		</g>
		<g>
			<polygon fill-rule="evenodd" clip-rule="evenodd" fill="#0B0D1F" points="159.3,858.5 198.6,858.5 198.6,767.8 179,746.5 
				159.3,767.8 			"/>
			<polygon fill-rule="evenodd" clip-rule="evenodd" fill="#0A747A" points="164.1,858.5 159.3,858.5 159.3,767.8 179,746.5 
				181.4,749.1 164.1,767.8 			"/>
		</g>
		<g>
			<polygon fill-rule="evenodd" clip-rule="evenodd" fill="#0B0D1F" points="212.4,858.5 251.7,858.5 251.7,767.8 232.1,746.5 
				212.4,767.8 			"/>
			<polygon fill-rule="evenodd" clip-rule="evenodd" fill="#0A747A" points="217.2,858.5 212.4,858.5 212.4,767.8 232.1,746.5 
				234.5,749.1 217.2,767.8 			"/>
		</g>
		<g>
			<polygon fill-rule="evenodd" clip-rule="evenodd" fill="#0B0D1F" points="265.5,858.5 304.8,858.5 304.8,767.8 285.2,746.5 
				265.5,767.8 			"/>
			<polygon fill-rule="evenodd" clip-rule="evenodd" fill="#0A747A" points="270.3,858.5 265.5,858.5 265.5,767.8 285.2,746.5 
				287.6,749.1 270.3,767.8 			"/>
		</g>
		<g>
			<polygon fill-rule="evenodd" clip-rule="evenodd" fill="#0B0D1F" points="318.6,858.5 357.9,858.5 357.9,767.8 338.3,746.5 
				318.6,767.8 			"/>
			<polygon fill-rule="evenodd" clip-rule="evenodd" fill="#0A747A" points="323.5,858.5 318.6,858.5 318.6,767.8 338.3,746.5 
				340.7,749.1 323.5,767.8 			"/>
		</g>
		<g>
			<polygon fill-rule="evenodd" clip-rule="evenodd" fill="#0B0D1F" points="371.7,858.5 411,858.5 411,767.8 391.4,746.5 
				371.7,767.8 			"/>
			<polygon fill-rule="evenodd" clip-rule="evenodd" fill="#0A747A" points="376.6,858.5 371.7,858.5 371.7,767.8 391.4,746.5 
				393.8,749.1 376.6,767.8 			"/>
		</g>
		<g>
			<polygon fill-rule="evenodd" clip-rule="evenodd" fill="#0B0D1F" points="424.9,858.5 464.1,858.5 464.1,767.8 444.5,746.5 
				424.9,767.8 			"/>
			<polygon fill-rule="evenodd" clip-rule="evenodd" fill="#0A747A" points="429.7,858.5 424.9,858.5 424.9,767.8 444.5,746.5 
				446.9,749.1 429.7,767.8 			"/>
		</g>
	</g>
</g>
<g>
	<rect y="858.5" fill-rule="evenodd" clip-rule="evenodd" fill="#004A59" width="1750" height="121.5"/>
	<rect y="899.7" fill-rule="evenodd" clip-rule="evenodd" fill="#003242" width="1750" height="80.3"/>
</g>
<g>
	<path fill-rule="evenodd" clip-rule="evenodd" fill="#FFFFFF" d="M175.9,159.9c2,0,4,0.1,5.9,0.4c-14.7,2.9-25.8,15.9-25.8,31.4
		c0,17.7,14.3,32.1,32.1,32.1c10,0,18.9-4.6,24.8-11.8c-5.4,15.2-19.9,26.1-36.9,26.1c-21.6,0-39.1-17.5-39.1-39.2
		C136.7,177.5,154.2,159.9,175.9,159.9L175.9,159.9z"/>
	<path fill-rule="evenodd" clip-rule="evenodd" fill="#FFFFFF" d="M311.5,190.4c2.5,0,4.4,2,4.4,4.4c0,2.5-2,4.4-4.4,4.4
		s-4.4-2-4.4-4.4C307.1,192.4,309.1,190.4,311.5,190.4L311.5,190.4z"/>
	<path fill-rule="evenodd" clip-rule="evenodd" fill="#FFFFFF" d="M595.9,145.6c2.5,0,4.4,2,4.4,4.4c0,2.4-2,4.4-4.4,4.4
		s-4.4-2-4.4-4.4C591.5,147.6,593.5,145.6,595.9,145.6L595.9,145.6z"/>
	<path fill-rule="evenodd" clip-rule="evenodd" fill="#FFFFFF" d="M916.4,50.4c2.4,0,4.4,2,4.4,4.4c0,2.4-2,4.4-4.4,4.4
		c-2.5,0-4.4-2-4.4-4.4C912,52.4,914,50.4,916.4,50.4L916.4,50.4z"/>
	<path fill-rule="evenodd" clip-rule="evenodd" fill="#FFFFFF" d="M1184.6,159.4c2.5,0,4.4,2,4.4,4.4c0,2.4-2,4.4-4.4,4.4
		c-2.4,0-4.4-2-4.4-4.4C1180.2,161.4,1182.2,159.4,1184.6,159.4L1184.6,159.4z"/>
	<path fill-rule="evenodd" clip-rule="evenodd" fill="#FFFFFF" d="M397.8,94.9c2.4,0,4.4,2,4.4,4.4c0,2.4-2,4.4-4.4,4.4
		c-2.4,0-4.4-2-4.4-4.4C393.4,96.8,395.4,94.9,397.8,94.9L397.8,94.9z"/>
	<path fill-rule="evenodd" clip-rule="evenodd" fill="#FFFFFF" d="M56,34.7c2.4,0,4.4,2,4.4,4.4c0,2.4-2,4.4-4.4,4.4
		c-2.4,0-4.4-2-4.4-4.4C51.6,36.6,53.6,34.7,56,34.7L56,34.7z"/>
	<path fill-rule="evenodd" clip-rule="evenodd" fill="#FFFFFF" d="M142.4,94.5c1.6,0,2.9,1.3,2.9,3c0,1.6-1.3,2.9-2.9,2.9
		c-1.6,0-2.9-1.3-2.9-2.9C139.5,95.8,140.8,94.5,142.4,94.5L142.4,94.5z"/>
	<path fill-rule="evenodd" clip-rule="evenodd" fill="#FFFFFF" d="M406.1,33.2c1.6,0,2.9,1.3,2.9,2.9c0,1.6-1.3,3-2.9,3
		c-1.6,0-3-1.3-3-3C403.1,34.5,404.5,33.2,406.1,33.2L406.1,33.2z"/>
	<path fill-rule="evenodd" clip-rule="evenodd" fill="#FFFFFF" d="M750.5,93.4c1.6,0,2.9,1.3,2.9,2.9c0,1.6-1.3,2.9-2.9,2.9
		c-1.6,0-3-1.3-3-2.9C747.5,94.7,748.9,93.4,750.5,93.4L750.5,93.4z"/>
	<path fill-rule="evenodd" clip-rule="evenodd" fill="#FFFFFF" d="M52.6,309.7c1.6,0,2.9,1.3,2.9,3c0,1.6-1.3,2.9-2.9,2.9
		c-1.6,0-3-1.3-3-2.9C49.7,311,51,309.7,52.6,309.7L52.6,309.7z"/>
	<path fill-rule="evenodd" clip-rule="evenodd" fill="#FFFFFF" d="M846.9,169.1c1.6,0,2.9,1.3,2.9,2.9c0,1.6-1.3,2.9-2.9,2.9
		c-1.6,0-2.9-1.3-2.9-2.9C844,170.3,845.3,169.1,846.9,169.1L846.9,169.1z"/>
	<path fill-rule="evenodd" clip-rule="evenodd" fill="#FFFFFF" d="M965.3,209c1.6,0,2.9,1.3,2.9,2.9c0,1.6-1.3,2.9-2.9,2.9
		c-1.6,0-3-1.3-3-2.9C962.4,210.2,963.7,209,965.3,209L965.3,209z"/>
	<path fill-rule="evenodd" clip-rule="evenodd" fill="#FFFFFF" d="M1058.7,123.3c1.6,0,3,1.3,3,2.9c0,1.6-1.3,2.9-3,2.9
		c-1.6,0-2.9-1.3-2.9-2.9C1055.8,124.6,1057.1,123.3,1058.7,123.3L1058.7,123.3z"/>
	<path fill-rule="evenodd" clip-rule="evenodd" fill="#FFFFFF" d="M1246.8,81.5c0.8,0,1.5,0.7,1.5,1.5c0,0.8-0.7,1.5-1.5,1.5
		c-0.8,0-1.5-0.7-1.5-1.5C1245.4,82.2,1246,81.5,1246.8,81.5L1246.8,81.5z"/>
	<path fill-rule="evenodd" clip-rule="evenodd" fill="#FFFFFF" d="M940.8,132.8c0.8,0,1.5,0.7,1.5,1.5c0,0.8-0.7,1.5-1.5,1.5
		c-0.8,0-1.5-0.7-1.5-1.5C939.3,133.5,940,132.8,940.8,132.8L940.8,132.8z"/>
	<path fill-rule="evenodd" clip-rule="evenodd" fill="#FFFFFF" d="M1153.5,250.4c0.8,0,1.5,0.7,1.5,1.5c0,0.8-0.7,1.5-1.5,1.5
		c-0.8,0-1.5-0.7-1.5-1.5C1152,251.1,1152.7,250.4,1153.5,250.4L1153.5,250.4z"/>
	<path fill-rule="evenodd" clip-rule="evenodd" fill="#FFFFFF" d="M1285.6,42.6c0.8,0,1.5,0.6,1.5,1.5c0,0.8-0.7,1.5-1.5,1.5
		c-0.8,0-1.5-0.7-1.5-1.5C1284.2,43.2,1284.8,42.6,1285.6,42.6L1285.6,42.6z"/>
	<path fill-rule="evenodd" clip-rule="evenodd" fill="#FFFFFF" d="M45.2,170.4c0.8,0,1.5,0.7,1.5,1.5c0,0.8-0.7,1.5-1.5,1.5
		c-0.8,0-1.5-0.7-1.5-1.5C43.7,171.1,44.4,170.4,45.2,170.4L45.2,170.4z"/>
	<path fill-rule="evenodd" clip-rule="evenodd" fill="#FFFFFF" d="M194.8,309.7c0.8,0,1.5,0.7,1.5,1.5c0,0.8-0.7,1.5-1.5,1.5
		c-0.8,0-1.5-0.6-1.5-1.5C193.4,310.3,194,309.7,194.8,309.7L194.8,309.7z"/>
	<path fill-rule="evenodd" clip-rule="evenodd" fill="#FFFFFF" d="M1082.4,77.1c0.8,0,1.5,0.7,1.5,1.5s-0.7,1.5-1.5,1.5
		c-0.8,0-1.5-0.7-1.5-1.5S1081.6,77.1,1082.4,77.1L1082.4,77.1z"/>
	<path fill-rule="evenodd" clip-rule="evenodd" fill="#FFFFFF" d="M272.6,47.9c0.8,0,1.5,0.7,1.5,1.5c0,0.8-0.6,1.5-1.5,1.5
		c-0.8,0-1.5-0.7-1.5-1.5C271.1,48.5,271.8,47.9,272.6,47.9L272.6,47.9z"/>
	<path fill-rule="evenodd" clip-rule="evenodd" fill="#FFFFFF" d="M80,240.5c0.8,0,1.5,0.7,1.5,1.5c0,0.8-0.7,1.5-1.5,1.5
		c-0.8,0-1.5-0.7-1.5-1.5C78.5,241.2,79.2,240.5,80,240.5L80,240.5z"/>
	<path fill-rule="evenodd" clip-rule="evenodd" fill="#FFFFFF" d="M815.9,33.1c0.8,0,1.5,0.6,1.5,1.5c0,0.8-0.7,1.5-1.5,1.5
		c-0.8,0-1.5-0.7-1.5-1.5C814.4,33.7,815,33.1,815.9,33.1L815.9,33.1z"/>
	<path fill-rule="evenodd" clip-rule="evenodd" fill="#FFFFFF" d="M458.6,133.4c0.8,0,1.5,0.7,1.5,1.5c0,0.8-0.7,1.5-1.5,1.5
		c-0.8,0-1.5-0.7-1.5-1.5C457.1,134,457.8,133.4,458.6,133.4L458.6,133.4z"/>
	<path fill-rule="evenodd" clip-rule="evenodd" fill="#FFFFFF" d="M611.2,41.5c0.8,0,1.5,0.7,1.5,1.5s-0.7,1.5-1.5,1.5
		s-1.5-0.7-1.5-1.5S610.4,41.5,611.2,41.5L611.2,41.5z"/>
	<path fill-rule="evenodd" clip-rule="evenodd" fill="#FFFFFF" d="M485.6,315c2.4,0,4.4,2,4.4,4.4c0,2.4-2,4.4-4.4,4.4
		c-2.4,0-4.4-2-4.4-4.4C481.1,317,483.1,315,485.6,315L485.6,315z"/>
	<path fill-rule="evenodd" clip-rule="evenodd" fill="#FFFFFF" d="M164.9,415.9c2.5,0,4.4,2,4.4,4.4c0,2.4-2,4.4-4.4,4.4
		c-2.4,0-4.4-2-4.4-4.4C160.4,417.9,162.4,415.9,164.9,415.9L164.9,415.9z"/>
	<path fill-rule="evenodd" clip-rule="evenodd" fill="#FFFFFF" d="M372.3,288.4c1.6,0,2.9,1.3,2.9,2.9c0,1.6-1.3,2.9-2.9,2.9
		c-1.6,0-2.9-1.3-2.9-2.9C369.4,289.8,370.6,288.4,372.3,288.4L372.3,288.4z"/>
	<path fill-rule="evenodd" clip-rule="evenodd" fill="#FFFFFF" d="M443.4,497.4c1.6,0,2.9,1.3,2.9,2.9c0,1.6-1.3,2.9-2.9,2.9
		c-1.6,0-2.9-1.3-2.9-2.9C440.5,498.7,441.8,497.4,443.4,497.4L443.4,497.4z"/>
	<path fill-rule="evenodd" clip-rule="evenodd" fill="#FFFFFF" d="M935.3,321c1.6,0,2.9,1.3,2.9,2.9c0,1.6-1.3,3-2.9,3
		c-1.6,0-3-1.3-3-3C932.4,322.4,933.7,321,935.3,321L935.3,321z"/>
	<path fill-rule="evenodd" clip-rule="evenodd" fill="#FFFFFF" d="M1476.2,354.8c1.6,0,2.9,1.3,2.9,2.9c0,1.6-1.3,2.9-2.9,2.9
		c-1.6,0-3-1.3-3-2.9C1473.2,356.1,1474.5,354.8,1476.2,354.8L1476.2,354.8z"/>
	<path fill-rule="evenodd" clip-rule="evenodd" fill="#FFFFFF" d="M610.1,479.2c0.8,0,1.5,0.7,1.5,1.5c0,0.8-0.7,1.5-1.5,1.5
		c-0.8,0-1.5-0.7-1.5-1.5C608.6,479.9,609.3,479.2,610.1,479.2L610.1,479.2z"/>
	<path fill-rule="evenodd" clip-rule="evenodd" fill="#FFFFFF" d="M366.3,399.6c0.8,0,1.5,0.7,1.5,1.5s-0.6,1.5-1.5,1.5
		c-0.8,0-1.5-0.7-1.5-1.5S365.5,399.6,366.3,399.6L366.3,399.6z"/>
	<path fill-rule="evenodd" clip-rule="evenodd" fill="#FFFFFF" d="M707.1,248.4c0.8,0,1.5,0.7,1.5,1.5c0,0.8-0.7,1.5-1.5,1.5
		s-1.5-0.7-1.5-1.5C705.7,249.1,706.3,248.4,707.1,248.4L707.1,248.4z"/>
	<path fill-rule="evenodd" clip-rule="evenodd" fill="#FFFFFF" d="M52.3,467.7c0.8,0,1.5,0.7,1.5,1.5c0,0.8-0.7,1.5-1.5,1.5
		c-0.8,0-1.5-0.7-1.5-1.5C50.8,468.4,51.4,467.7,52.3,467.7L52.3,467.7z"/>
	<path fill-rule="evenodd" clip-rule="evenodd" fill="#FFFFFF" d="M683.4,409.9c0.8,0,1.5,0.7,1.5,1.5c0,0.8-0.7,1.5-1.5,1.5
		c-0.8,0-1.5-0.7-1.5-1.5C682,410.6,682.6,409.9,683.4,409.9L683.4,409.9z"/>
	<path fill-rule="evenodd" clip-rule="evenodd" fill="#FFFFFF" d="M587.1,284c0.8,0,1.5,0.7,1.5,1.5c0,0.8-0.7,1.5-1.5,1.5
		s-1.5-0.7-1.5-1.5C585.7,284.7,586.3,284,587.1,284L587.1,284z"/>
	<path fill-rule="evenodd" clip-rule="evenodd" fill="#FFFFFF" d="M1087.9,352.1c0.8,0,1.5,0.7,1.5,1.5c0,0.8-0.7,1.5-1.5,1.5
		s-1.5-0.6-1.5-1.5C1086.5,352.8,1087.1,352.1,1087.9,352.1L1087.9,352.1z"/>
	<path fill-rule="evenodd" clip-rule="evenodd" fill="#FFFFFF" d="M871.6,424.8c0.8,0,1.5,0.6,1.5,1.5c0,0.8-0.7,1.5-1.5,1.5
		c-0.8,0-1.5-0.7-1.5-1.5C870.1,425.4,870.8,424.8,871.6,424.8L871.6,424.8z"/>
</g>
<g>
	<g>
		<g>
			<path fill-rule="evenodd" clip-rule="evenodd" fill="#472B34" d="M171.5,580.1h41.4c6.1,0,6.1-9.2,0-9.2h-41.4
				C165.5,571,165.5,580.1,171.5,580.1L171.5,580.1z"/>
			<path fill-rule="evenodd" clip-rule="evenodd" fill="#548ABA" d="M198,534.9c-3.8,3.4-6.9,8.1-5.3,11.3c1.5,2.8,4.1,4,6.1,6.4
				c1.7,2,0.3,6.6-2.7,10.2c4.9-3.5,9.2-9.9,6.3-12.9c-1.8-1.8-5-3.1-6.6-5.1C194.1,542.4,195.5,538.4,198,534.9L198,534.9z
				 M185.5,545.6c-3,2.6-5.3,6.3-4.1,8.7c1.1,2.2,3.1,3.1,4.7,4.9c1.3,1.5,0.2,5.1-2.1,7.8c3.8-2.7,7.1-7.6,4.9-10
				c-1.4-1.4-3.9-2.4-5.1-4C182.5,551.4,183.6,548.3,185.5,545.6L185.5,545.6z"/>
			<path fill-rule="evenodd" clip-rule="evenodd" fill="#7F5935" d="M174.4,571c0,6.1,9.2,6.1,9.2,0H174.4z M210.1,571h-9.2
				C200.9,577,210.1,577,210.1,571L210.1,571z M196.8,571h-9.1C187.7,577,196.8,577,196.8,571L196.8,571z"/>
		</g>
		<g>
			<path fill-rule="evenodd" clip-rule="evenodd" fill="#472B34" d="M248.3,580.1h41.4c6.1,0,6.1-9.2,0-9.2h-41.4
				C242.3,571,242.3,580.1,248.3,580.1L248.3,580.1z"/>
			<path fill-rule="evenodd" clip-rule="evenodd" fill="#548ABA" d="M274.8,534.9c-3.8,3.4-6.9,8.1-5.3,11.3c1.4,2.8,4.1,4,6.1,6.4
				c1.7,2,0.3,6.6-2.7,10.2c4.9-3.5,9.2-9.9,6.3-12.9c-1.8-1.8-5-3.1-6.6-5.1C270.9,542.4,272.3,538.4,274.8,534.9L274.8,534.9z
				 M262.3,545.6c-2.9,2.6-5.3,6.3-4,8.7c1.1,2.2,3.1,3.1,4.7,4.9c1.3,1.5,0.2,5.1-2.1,7.8c3.8-2.7,7.1-7.6,4.9-10
				c-1.4-1.4-3.9-2.4-5.1-4C259.3,551.4,260.4,548.3,262.3,545.6L262.3,545.6z"/>
			<path fill-rule="evenodd" clip-rule="evenodd" fill="#7F5935" d="M251.2,571c0,6.1,9.1,6.1,9.1,0H251.2z M286.9,571h-9.2
				C277.7,577,286.9,577,286.9,571L286.9,571z M273.6,571h-9.2C264.4,577,273.6,577,273.6,571L273.6,571z"/>
		</g>
		<g>
			<path fill-rule="evenodd" clip-rule="evenodd" fill="#472B34" d="M325.1,580.1h41.4c6.1,0,6.1-9.2,0-9.2h-41.4
				C319.1,571,319.1,580.1,325.1,580.1L325.1,580.1z"/>
			<path fill-rule="evenodd" clip-rule="evenodd" fill="#548ABA" d="M351.5,534.9c-3.8,3.4-6.9,8.1-5.3,11.3c1.4,2.8,4.1,4,6.1,6.4
				c1.7,2,0.3,6.6-2.7,10.2c4.9-3.5,9.2-9.9,6.3-12.9c-1.8-1.8-5.1-3.1-6.6-5.1C347.7,542.4,349.1,538.4,351.5,534.9L351.5,534.9z
				 M339,545.6c-2.9,2.6-5.3,6.3-4,8.7c1.1,2.2,3.1,3.1,4.7,4.9c1.3,1.5,0.2,5.1-2.1,7.8c3.8-2.7,7.1-7.6,4.9-10
				c-1.4-1.4-3.9-2.4-5.1-4C336.1,551.4,337.2,548.3,339,545.6L339,545.6z"/>
			<path fill-rule="evenodd" clip-rule="evenodd" fill="#7F5935" d="M328,571c0,6.1,9.1,6.1,9.1,0H328z M363.7,571h-9.2
				C354.5,577,363.7,577,363.7,571L363.7,571z M350.4,571h-9.2C341.2,577,350.4,577,350.4,571L350.4,571z"/>
		</g>
	</g>
	<g>
		<g>
			<g>
				<path fill-rule="evenodd" clip-rule="evenodd" fill="#000C1A" d="M361.2,837.9h18.6c4.8,0,10.3,20.6,5.5,20.6h-18.5
					C362,858.5,356.4,837.9,361.2,837.9L361.2,837.9z"/>
				<polygon fill-rule="evenodd" clip-rule="evenodd" fill="#0F335C" points="361.6,837.9 379.4,837.9 346.9,716.6 329.1,716.6 				
					"/>
				<polygon fill-rule="evenodd" clip-rule="evenodd" fill="#000C1A" points="334.3,736 352.1,736 346.9,716.6 329.1,716.6 				"/>
				<polygon fill-rule="evenodd" clip-rule="evenodd" fill="#11B2BA" points="361.6,837.9 364.6,837.9 337.3,736 334.3,736 				"/>
				<polygon fill-rule="evenodd" clip-rule="evenodd" fill="#FFFF66" points="373.7,837.9 379.3,837.9 352,736 346.4,736 				"/>
			</g>
			<g>
				<path fill-rule="evenodd" clip-rule="evenodd" fill="#000C1A" d="M158.2,837.9h18.6c4.8,0-0.8,20.6-5.5,20.6h-18.6
					C147.9,858.5,153.4,837.9,158.2,837.9L158.2,837.9z"/>
				<polygon fill-rule="evenodd" clip-rule="evenodd" fill="#0F335C" points="158.6,837.9 176.4,837.9 208.9,716.6 191.1,716.6 				
					"/>
				<polygon fill-rule="evenodd" clip-rule="evenodd" fill="#000C1A" points="185.9,736 203.7,736 208.9,716.6 191.1,716.6 				"/>
				<polygon fill-rule="evenodd" clip-rule="evenodd" fill="#11B2BA" points="158.6,837.9 161.6,837.9 188.9,736 185.9,736 				"/>
			</g>
			<g>
				<path fill-rule="evenodd" clip-rule="evenodd" fill="#11B2BA" d="M187.1,757h163.7c2.8,0,5.1,2.8,5.1,6.2l0,0
					c0,3.4-2.3,6.2-5.1,6.2H187.1c-2.8,0-5.1-2.8-5.1-6.2l0,0C182.1,759.8,184.3,757,187.1,757L187.1,757z"/>
				<path fill-rule="evenodd" clip-rule="evenodd" fill="#000C1A" d="M355.2,760.1c0.5,0.9,0.7,2,0.7,3.2l0,0c0,3.4-2.3,6.2-5.1,6.2
					H187.1c-0.9,0-1.7-0.3-2.4-0.7c-0.5-0.9-0.7-2-0.7-3.1l0,0c0-3.4,2.3-6.2,5.1-6.2h163.7C353.7,759.3,354.5,759.6,355.2,760.1
					L355.2,760.1z"/>
			</g>
		</g>
		<g>
			<path fill-rule="evenodd" clip-rule="evenodd" fill="#000C1A" d="M259.7,837.9h18.6c4.8,0,4.8,20.6,0,20.6h-18.6
				C254.9,858.5,254.9,837.9,259.7,837.9L259.7,837.9z"/>
			<rect x="260" y="716.6" fill-rule="evenodd" clip-rule="evenodd" fill="#0F335C" width="17.9" height="121.3"/>
			<rect x="260" y="716.6" fill-rule="evenodd" clip-rule="evenodd" fill="#000C1A" width="17.9" height="19.4"/>
			<rect x="260.1" y="736" fill-rule="evenodd" clip-rule="evenodd" fill="#11B2BA" width="3" height="101.9"/>
		</g>
		<g>
			<g>
				<path fill-rule="evenodd" clip-rule="evenodd" fill="#548ABA" d="M144.1,580.1H394c2.6,0,4.7,3.1,4.7,6.8l0,0
					c0,3.8-2.1,6.9-4.7,6.9H144.1c-2.6,0-4.7-3.1-4.7-6.9l0,0C139.3,583.2,141.5,580.1,144.1,580.1L144.1,580.1z"/>
				<path fill-rule="evenodd" clip-rule="evenodd" fill="#63F0F7" d="M144.1,580.1h12.8c-5.8,2.8-5.8,10.4,0,13.7h-12.8
					C137.8,593.8,137.8,580.1,144.1,580.1L144.1,580.1z"/>
			</g>
			<g>
				<path fill-rule="evenodd" clip-rule="evenodd" fill="#000C1A" d="M437.1,609.5c6.4,0,11.7,5.2,11.7,11.7s-5.2,11.7-11.7,11.7
					h-35.2c-6.4,29.8-24.9,52.1-49.5,66.8v11.7c0,6.4-5.3,11.7-11.7,11.7H197.3c-6.4,0-11.7-5.3-11.7-11.7v-11.7
					c-24.5-14.7-43.1-37-49.5-66.8h-35.2c-6.4,0-11.7-5.2-11.7-11.7s5.2-11.7,11.7-11.7H437.1z M403.9,618.7
					c-0.1,1.6-0.3,3.3-0.5,4.9H437c1.4,0,2.5-1.1,2.5-2.4c0-1.4-1.1-2.5-2.5-2.5H403.9z M134.6,623.6c-0.2-1.6-0.3-3.2-0.5-4.9H101
					c-1.4,0-2.5,1.1-2.5,2.5c0,1.3,1.1,2.4,2.5,2.4H134.6z"/>
				<path fill-rule="evenodd" clip-rule="evenodd" fill="#11B2BA" d="M185.6,699.6c-24.6-14.7-43.1-37-49.5-66.8h-35.2
					c-6.4,0-11.7-5.2-11.7-11.7s5.2-11.7,11.7-11.7h46.9c-2.7,27.7,8.3,64.9,51.4,90.1v11.7c0,6.4,4.7,11.7,11.1,11.7h-12.9
					c-6.4,0-11.7-5.3-11.7-11.7V699.6z M134.6,623.6c-0.2-1.6-0.3-3.2-0.5-4.9H101c-1.4,0-2.5,1.1-2.5,2.5c0,1.3,1.1,2.4,2.5,2.4
					H134.6z"/>
				<path fill-rule="evenodd" clip-rule="evenodd" fill="#FFFF66" d="M352.4,699.6c24.6-14.7,43.1-37,49.5-66.8h35.2
					c6.4,0,11.7-5.2,11.7-11.7s-5.2-11.7-11.7-11.7h-46.9c2.7,27.7-8.3,64.9-51.3,90.1v11.7c0,6.4-4.7,11.7-11.1,11.7h12.9
					c6.4,0,11.7-5.3,11.7-11.7V699.6z M403.4,623.6c0.2-1.6,0.3-3.2,0.5-4.9H437c1.4,0,2.5,1.1,2.5,2.5c0,1.3-1.1,2.4-2.5,2.4H403.4
					z"/>
			</g>
			<g>
				<rect x="156.5" y="593.8" fill-rule="evenodd" clip-rule="evenodd" fill="#0F335C" width="14.6" height="15.7"/>
				<rect x="156.5" y="593.8" fill-rule="evenodd" clip-rule="evenodd" fill="#11B2BA" width="2.5" height="15.7"/>
				<rect x="261.7" y="593.8" fill-rule="evenodd" clip-rule="evenodd" fill="#0F335C" width="14.6" height="15.7"/>
				<rect x="261.7" y="593.8" fill-rule="evenodd" clip-rule="evenodd" fill="#11B2BA" width="2.5" height="15.7"/>
				<rect x="366.9" y="593.8" fill-rule="evenodd" clip-rule="evenodd" fill="#0F335C" width="14.6" height="15.7"/>
				<rect x="366.9" y="593.8" fill-rule="evenodd" clip-rule="evenodd" fill="#11B2BA" width="2.5" height="15.7"/>
			</g>
		</g>
	</g>
</g>
<g>
	<g>
		<path fill-rule="evenodd" clip-rule="evenodd" fill="#2C1E40" d="M1390.6,52.6c39,91.2,103.9,148.1,141,211.9
			c-53.8,4.5-97.5,8.5-149.3-7.8c-29.8-26.7-61-46.4-94.8-53.3c-1,2.9-2,5.9-3,8.9c44.8,18,69.4,38.3,93.3,59.3
			c-53.4,26.6-108.6,42.6-168.9,29.6c3.5,4,6.9,7.9,10.4,11.8c61.2,11.7,116.6-0.3,168.9-25.2c56,20.3,109.9,19.7,163,10.4
			c39,37.8,82.3,67.9,121.3,89.9c-17.3,67.2-21.1,161.5-29.5,243.5c-33.7,39.1-52.8,88.3-60.8,145.2c-25.7,7.2-46,22.9-57.8,51.8
			c-44.7,1.6-89.1,4.8-131.9,19.3c-32.4-3.4-52.5,3.1-71.1,10.6c142.8,0,285.6,0,428.5,0c0-286.2,0-572.3,0-858.5
			c-9.4,0-18.8,0-28.2,0c-16.5,99.5-29.6,200.6-37.2,304.1c-58.9-14.8-102.6-46.4-125.9-100.7c-67.6-49.3-97.4-103.9-135.2-157.4
			C1412.5,48.1,1401.5,50.4,1390.6,52.6L1390.6,52.6z"/>
		<path fill-rule="evenodd" clip-rule="evenodd" fill="#11B2BA" d="M1460,166.5c26.4,34.5,52.6,65.3,71.6,98
			c-7.8-46.1-20.1-64.1-51.1-100.8L1460,166.5z M1586.9,329.8c28.7,23.3,58.2,42.8,85.7,58.3c-17.3,67.2-21.1,161.5-29.5,243.5
			c-33.7,39.1-52.8,88.3-60.8,145.2c-25.7,7.2-46,22.9-57.8,51.8c-44.7,1.6-89.1,4.8-131.9,19.3c-21.2-2.2-37.1-0.2-50.8,3.5
			c20.4-2.9,39.2-1.7,57.1,1.3c38.9-17.7,85.3-19.1,132.6-18.5c12.9-28.7,37.2-41.5,64.4-50.4c4.1-45.1,20.9-88.3,64.5-127.4
			c20-57.9,24.4-115.6,29.4-150.6c-8.3,26.1-15.4,45.8-23.5,65.4c-0.8-74.2,6-135.2,20-183.7c14.8-6.4,21.5-15.4,25.9-25.2
			c-9.7,10.4-22.7,14.6-39.3,12.6c-24.5-14.4-47.4-30.6-67.4-50.4L1586.9,329.8z"/>
	</g>
	<g>
		<g>
			<path fill-rule="evenodd" clip-rule="evenodd" fill="#11B2BA" d="M1449.9,128.6c22,19.4,31.6,5.4,30.2-21.2
				c14.9,15.4,21,6.2,12.6-14.3c7.7,5.1,12.2,2,12.4-10.8c0.7,1.4,1.3,2.6,1.9,3.7V0h-199.2c-5.5,5.9-5.3,12,5.4,16
				c-8.1,21.4,3.7,37.1,32.6,32.2c-13.1,16.8-9,24.3,12.3,18.5c-15.3,34.8-5.4,43.8,23.5,21.1c-1.8,20.9,14.9,16.1,20,2.9
				c1,14.6,6.2,17.7,16.2,6C1410,130.7,1419.2,155.5,1449.9,128.6L1449.9,128.6z"/>
			<path fill-rule="evenodd" clip-rule="evenodd" fill="#006166" d="M1477.8,129.2c2.1-5.3,2.9-12.8,2.4-21.8
				c14.9,15.4,21,6.2,12.6-14.3c7.7,5.1,12.2,2,12.4-10.8c0.7,1.4,1.3,2.6,1.9,3.7V0h-189c-19.7,3.8-4.7,16,5.5,8.5
				c-23,20.6,3.9,42.7,33.3,27.1c-20.6,28.4-10.9,34.8,12.3,18.5c-22.9,40.9-13.3,50.7,20.6,21.6c-11.9,30.9,8,22.9,16.8,1.9
				c-5.3,24,5.9,24.5,22.3,6.5c-20.1,46.8-3.8,61.2,26.9,34.3C1458.9,131.8,1470.9,138.5,1477.8,129.2L1477.8,129.2z"/>
			<path fill-rule="evenodd" clip-rule="evenodd" fill="#004A59" d="M1507,74.3V55.2c-0.3-0.8-0.6-1.7-1-2.6c0.3,0.2,0.7,0.5,1,0.7
				V0h-167.2c1.9,11.4,19,17.7,42.8,7.7c-18.2,16.8-10.9,34.8,12.3,18.5c-15.4,25.2-1.4,39.8,20.5,21.6c-7.8,18.9,8,22.9,16.8,1.9
				c-5.3,24,5.9,24.5,22.3,6.5c-20.1,46.8,15.9,39.2,21.4,23.9c11.4,11,21.9,4.1,17.5-13.2C1499.6,73.3,1504.3,75.4,1507,74.3
				L1507,74.3z"/>
		</g>
		<g>
			<path fill-rule="evenodd" clip-rule="evenodd" fill="#11B2BA" d="M1154.7,45.1c23.9,21.1,34.4,5.8,32.9-23.1
				c16.2,16.8,22.9,6.8,13.7-15.5c7.2,4.8,11.8,3,13.1-6.5h-166.8c-2.9,18.3,9,19.4,32.9,0.7c-2,22.8,16.2,17.5,21.7,3.2
				c1,15.9,6.8,19.2,17.6,6.5C1111.2,47.4,1121.2,74.3,1154.7,45.1L1154.7,45.1z M1217.5,0c6.4,10.9,10,9.1,11.2,0H1217.5z
				 M1239.9,0c8.3,4.4,15.7,4.3,20.7,0H1239.9z"/>
			<path fill-rule="evenodd" clip-rule="evenodd" fill="#006166" d="M1183.8,48.2c3.1-5.8,4.3-14.9,3.7-26.1
				c16.2,16.8,22.9,6.8,13.7-15.5c7.2,4.8,11.8,3,13.1-6.5H1125c-9.7,46,7.7,66.4,35.2,33.5C1162.2,49.5,1174.7,52.8,1183.8,48.2
				L1183.8,48.2z M1124.2,0h-17.3C1105.2,18.6,1113.6,17.5,1124.2,0L1124.2,0z M1102.7,0H1084C1081.5,16.9,1094.7,16.3,1102.7,0
				L1102.7,0z M1077.9,0h-23.7C1049.7,16.3,1068.6,8.9,1077.9,0L1077.9,0z"/>
			<path fill-rule="evenodd" clip-rule="evenodd" fill="#004A59" d="M1211,0h-80.2c-2.6,33.5,12.6,45.1,36.5,16.6
				c2.5,19.4,18.6,33.7,16.4-7.9c16.2,16.8,23.2,16.7,13.9-5.6C1203,6.7,1208.2,5,1211,0L1211,0z"/>
		</g>
		<g>
			<path fill-rule="evenodd" clip-rule="evenodd" fill="#11B2BA" d="M1664.7,192.2c32.9,29.1,47.3,8,45.2-31.7
				c22.3,23.1,31.5,9.3,18.8-21.4c11.6,7.7,18.2,3,18.5-16.1c1,2,2,3.8,2.9,5.5V0h-297.7c-8.2,8.8-7.9,18,8,23.9
				c-12.1,32.1,5.5,55.5,48.7,48.1c-19.6,25.1-13.5,36.3,18.4,27.7c-22.8,52-8,65.4,35.1,31.5c-2.7,31.3,22.3,24,29.9,4.3
				c1.4,21.8,9.3,26.5,24.2,9C1605,195.3,1618.8,232.4,1664.7,192.2L1664.7,192.2z"/>
			<path fill-rule="evenodd" clip-rule="evenodd" fill="#006166" d="M1706.3,193.1c3.2-7.9,4.3-19.2,3.6-32.6
				c22.3,23.1,31.5,9.3,18.8-21.4c11.6,7.7,18.2,3,18.5-16.1c1,2,2,3.8,2.9,5.5V0h-282.6c-29.4,5.7-7,23.9,8.2,12.8
				c-34.5,30.7,5.8,63.9,49.7,40.4c-30.8,42.4-16.3,52.1,18.4,27.7c-34.3,61.1-20,75.8,30.7,32.3c-17.7,46.3,11.9,34.2,25.1,2.8
				c-7.9,35.8,8.8,36.6,33.4,9.7c-30,69.9-5.7,91.5,40.2,51.2C1678.1,197,1696.1,207,1706.3,193.1L1706.3,193.1z"/>
			<path fill-rule="evenodd" clip-rule="evenodd" fill="#004A59" d="M1750,111.1V82.4c-0.5-1.3-0.9-2.5-1.5-3.8c0.5,0.3,1,0.6,1.5,1
				V0h-249.9c2.8,17.1,28.5,26.5,63.9,11.4c-27.2,25.1-16.3,52.1,18.4,27.7c-23.1,37.7-2.1,59.5,30.7,32.3
				c-11.6,28.3,11.9,34.2,25.1,2.8c-7.9,35.8,8.8,36.6,33.4,9.7c-30,69.9,23.8,58.6,32.1,35.7c17,16.5,32.7,6.2,26.1-19.7
				C1738.9,109.5,1745.9,112.7,1750,111.1L1750,111.1z"/>
		</g>
		<g>
			<path fill-rule="evenodd" clip-rule="evenodd" fill="#006166" d="M1243,205.1c-4.1-5.6,5.6-7.5,11.8-2.6c-5-7.4-0.7-12.5,4-9.6
				c-1.5-11.3,10.4-10.4,13.9-3.9c0-7.5,4.3-7.2,7.1-2.8c2.6-7,6.5-1.9,7.6,5.6c1.2-7.1,4-7.5,7.4-5.1c4.5-8.6,15-10.6,18.6,1.4
				c0.9-4.1,5.3-6.7,8.5-2.9c9.7-12.5,22-6.4,22.8,13.1c8.9-8.7,24.1-3.9,11.8,9c19.9,2.5,20.1,26.5-11.8,19.5
				c-5.5,23.2-30.5,13.2-31.2,10.2c-3.6,12.1-14.1,10-18.6,1.4c-3.5,2.3-6.2,1.9-7.4-5.1c-14.7,11.8-29.8,7.6-28.6-1.1
				c-15.7,5-21.2-4.2-15.7-12.2C1233.8,216.3,1233.8,208.6,1243,205.1L1243,205.1z"/>
			<path fill-rule="evenodd" clip-rule="evenodd" fill="#11B2BA" d="M1236.5,210.5c2-2.3,7.3-4.8,10.6-3.9c-4.5-6.9,5.7-6.8,9.7-0.8
				c-2.9-6.9-1.4-17,2.8-11.1c2-12.1,11.7-9,14-2.7c-0.1-8.1,4.5-8.8,6.4-3.7c2-3.5,7.1-2.9,6.4,8.1c0.9-4.2,5-11.8,9.6-8.5
				c7-9.9,15-6.1,17.5,2.5c3.7-6.6,8.7-7.1,8.9,1.6c0.7-4,4.3-13.5,11.8-13.4c-3.9-0.8-8.4,1.1-12.4,6.3c-3.2-3.7-7.5-1.1-8.5,2.9
				c-3.6-12.1-14.1-10-18.6-1.4c-3.5-2.3-6.2-1.9-7.4,5.1c-1.1-7.5-4.9-12.6-7.6-5.6c-2.8-4.4-7.1-4.7-7.1,2.8
				c-3.5-6.5-15.4-7.5-13.9,3.9c-4.6-2.9-8.9,2.2-4,9.6c-6.2-4.9-15.9-3-11.8,2.6C1239.9,206.2,1237.5,208.1,1236.5,210.5
				L1236.5,210.5z"/>
			<path fill-rule="evenodd" clip-rule="evenodd" fill="#004A59" d="M1274.2,206.7c-1.3-9.2,8.9-8.4,14.2-3.9
				c4.2-4.4,11.2-2.1,12.2,2.3c3.4-4.7,13.7-7.9,21.7-3.1c9.5-9.2,28.7-3.6,22,10.2c6.6,5.8,0.2,17.3-11.2,13.5
				c-3.6,12.2-17.3,9.5-20.3,2.4c-8.1,4.8-16.5,2.7-19.8-2c-3.8,4-16,7.3-16.4-0.4c-8.8,11.5-21,1.7-9.4-7.1
				C1257.6,216.1,1259.2,206.5,1274.2,206.7L1274.2,206.7z"/>
		</g>
		<g>
			<path fill-rule="evenodd" clip-rule="evenodd" fill="#006166" d="M1155.2,296c-7.6-10.3,10.3-13.8,21.6-4.8
				c-9.1-13.5-1.2-23.1,7.3-17.6c-2.7-20.9,19.1-19.2,25.7-7.1c0.1-13.9,7.9-13.2,13.1-5.1c4.8-12.9,11.9-3.5,13.9,10.3
				c2.2-13,7.2-13.9,13.7-9.5c8.2-15.8,27.6-19.6,34.2,2.6c1.8-7.5,9.8-12.3,15.6-5.4c17.9-23,40.5-11.8,41.9,24.1
				c16.5-16,44.5-7.2,21.7,16.5c36.6,4.6,37.1,48.7-21.7,35.8c-10.2,42.7-56.1,24.4-57.5,18.7c-6.6,22.2-26,18.4-34.2,2.6
				c-6.4,4.3-11.4,3.5-13.7-9.5c-27,21.7-54.7,14.1-52.6-2c-28.9,9.2-39-7.7-28.9-22.4C1138.2,316.6,1138.2,302.6,1155.2,296
				L1155.2,296z"/>
			<path fill-rule="evenodd" clip-rule="evenodd" fill="#11B2BA" d="M1143.1,306.1c3.6-4.3,13.4-8.9,19.6-7.1
				c-8.3-12.6,10.5-12.5,17.8-1.4c-5.3-12.7-2.6-31.3,5.2-20.4c3.7-22.3,21.5-16.5,25.8-4.9c-0.3-14.9,8.4-16.1,11.7-6.8
				c3.7-6.5,13.2-5.3,11.9,15c1.7-7.7,9.2-21.8,17.7-15.8c12.8-18.2,27.6-11.2,32.2,4.6c6.8-12.1,16-13,16.3,3.1
				c1.4-7.5,7.8-25,21.7-24.6c-7.2-1.6-15.4,2-22.9,11.6c-5.8-6.9-13.8-2.1-15.6,5.4c-6.6-22.2-26-18.4-34.2-2.6
				c-6.4-4.4-11.4-3.5-13.7,9.5c-1.9-13.8-9.1-23.2-13.9-10.3c-5.2-8.1-13.1-8.7-13.1,5.1c-6.5-12.1-28.4-13.7-25.7,7.1
				c-8.5-5.4-16.4,4.1-7.3,17.6c-11.3-9-29.2-5.5-21.6,4.8C1149.4,298.1,1145,301.6,1143.1,306.1L1143.1,306.1z"/>
			<path fill-rule="evenodd" clip-rule="evenodd" fill="#004A59" d="M1212.6,299.1c-2.4-17,16.4-15.4,26.2-7.2
				c7.7-8,20.7-3.8,22.5,4.3c6.1-8.6,25.1-14.5,40-5.7c17.4-17,52.8-6.6,40.6,18.7c12.2,10.7,0.4,31.9-20.6,24.9
				c-6.7,22.5-31.9,17.6-37.4,4.5c-14.8,8.8-30.4,4.9-36.5-3.7c-7.1,7.3-29.4,13.4-30.2-0.7c-16.2,21.2-38.6,3.1-17.3-13.1
				C1182,316.3,1184.9,298.7,1212.6,299.1L1212.6,299.1z"/>
		</g>
	</g>
</g>
<g>
	<polygon fill-rule="evenodd" clip-rule="evenodd" fill="#2C1E40" points="999.3,858.5 1030.2,858.5 1102.3,731 1079,717.6 	"/>
	<polygon fill-rule="evenodd" clip-rule="evenodd" fill="#FFFF66" points="1007,858.5 1084.8,720.9 1079,717.6 999.3,858.5 	"/>
	<rect x="876.9" y="758" fill-rule="evenodd" clip-rule="evenodd" fill="#2C1E40" width="181.1" height="26.8"/>
	<rect x="876.9" y="758" fill-rule="evenodd" clip-rule="evenodd" fill="#11B2BA" width="181.1" height="6.7"/>
	<rect x="854.5" y="798.5" fill-rule="evenodd" clip-rule="evenodd" fill="#2C1E40" width="181.1" height="26.8"/>
	<rect x="854.5" y="798.5" fill-rule="evenodd" clip-rule="evenodd" fill="#11B2BA" width="181.1" height="6.7"/>
	<polygon fill-rule="evenodd" clip-rule="evenodd" fill="#2C1E40" points="819.5,858.5 850.4,858.5 922.5,731 899.3,717.6 	"/>
	<rect x="1234" y="744.4" fill-rule="evenodd" clip-rule="evenodd" fill="#2C1E40" width="26.6" height="114.1"/>
	<rect x="1131.6" y="744.4" fill-rule="evenodd" clip-rule="evenodd" fill="#2C1E40" width="26.6" height="114.1"/>
	<rect x="1131.6" y="767.8" fill-rule="evenodd" clip-rule="evenodd" fill="#FFFF66" width="6.5" height="90.7"/>
	<rect x="1234" y="767.8" fill-rule="evenodd" clip-rule="evenodd" fill="#11B2BA" width="6.5" height="90.7"/>
	<rect x="899.3" y="717.6" fill-rule="evenodd" clip-rule="evenodd" fill="#2C1E40" width="376.9" height="26.8"/>
	<rect x="899.3" y="717.6" fill-rule="evenodd" clip-rule="evenodd" fill="#11B2BA" width="376.9" height="6.7"/>
	<polygon fill-rule="evenodd" clip-rule="evenodd" fill="#2C1E40" points="1253,720.9 1276.2,734.4 1415.4,488.3 1392.1,474.8 	"/>
	<polygon fill-rule="evenodd" clip-rule="evenodd" fill="#11B2BA" points="1258.8,724.3 1397.9,478.2 1392.1,474.8 1253,720.9 	"/>
	<rect x="1101.2" y="677.1" fill-rule="evenodd" clip-rule="evenodd" fill="#2C1E40" width="181.1" height="26.9"/>
	<rect x="1101.2" y="677.1" fill-rule="evenodd" clip-rule="evenodd" fill="#11B2BA" width="181.1" height="6.7"/>
	<rect x="1123.6" y="636.7" fill-rule="evenodd" clip-rule="evenodd" fill="#2C1E40" width="181.1" height="26.8"/>
	<rect x="1123.6" y="636.7" fill-rule="evenodd" clip-rule="evenodd" fill="#11B2BA" width="181.1" height="6.7"/>
	<rect x="1146" y="596.2" fill-rule="evenodd" clip-rule="evenodd" fill="#2C1E40" width="181.1" height="26.8"/>
	<rect x="1146" y="596.2" fill-rule="evenodd" clip-rule="evenodd" fill="#11B2BA" width="181.1" height="6.7"/>
	<rect x="1168.4" y="555.8" fill-rule="evenodd" clip-rule="evenodd" fill="#2C1E40" width="181.1" height="26.8"/>
	<rect x="1168.4" y="555.8" fill-rule="evenodd" clip-rule="evenodd" fill="#11B2BA" width="181.1" height="6.7"/>
	<rect x="1190.8" y="515.3" fill-rule="evenodd" clip-rule="evenodd" fill="#2C1E40" width="181.1" height="26.8"/>
	<rect x="1190.8" y="515.3" fill-rule="evenodd" clip-rule="evenodd" fill="#11B2BA" width="181.1" height="6.7"/>
	<polygon fill-rule="evenodd" clip-rule="evenodd" fill="#2C1E40" points="1213.2,474.8 1213.2,501.7 1407.8,501.7 1415.4,488.3 
		1415.4,474.8 	"/>
	<rect x="1212.4" y="474.8" fill-rule="evenodd" clip-rule="evenodd" fill="#11B2BA" width="203" height="6.7"/>
	<polygon fill-rule="evenodd" clip-rule="evenodd" fill="#2C1E40" points="1073.2,720.9 1096.4,734.4 1235.6,488.3 1212.4,474.8 	
		"/>
	<polygon fill-rule="evenodd" clip-rule="evenodd" fill="#11B2BA" points="1079,724.3 1218.2,478.2 1212.4,474.8 1073.2,720.9 	"/>
	<polygon fill-rule="evenodd" clip-rule="evenodd" fill="#FFFF66" points="827.3,858.5 905.1,720.9 899.3,717.6 819.5,858.5 	"/>
</g>
<g>
	<g>
		<rect x="527.9" y="835.9" fill-rule="evenodd" clip-rule="evenodd" fill="#2C1E40" width="155.4" height="22.6"/>
		<path fill-rule="evenodd" clip-rule="evenodd" fill="#5F4880" d="M527.9,835.9c-3.6,0-6.5,5.1-6.5,11.3s2.9,11.3,6.5,11.3
			c3.6,0,6.5-5,6.5-11.3S531.5,835.9,527.9,835.9L527.9,835.9z"/>
		<path fill-rule="evenodd" clip-rule="evenodd" fill="#5F4880" d="M583.7,835.9c-5.3,0-9.6,5.1-9.6,11.3s4.3,11.3,9.6,11.3
			c5.3,0,9.6-5,9.6-11.3S589,835.9,583.7,835.9L583.7,835.9z"/>
		<path fill-rule="evenodd" clip-rule="evenodd" fill="#5F4880" d="M635.6,835.9c-5.3,0-9.6,5.1-9.6,11.3s4.3,11.3,9.6,11.3
			c5.3,0,9.6-5,9.6-11.3S640.9,835.9,635.6,835.9L635.6,835.9z"/>
		<path fill-rule="evenodd" clip-rule="evenodd" fill="#5F4880" d="M683.3,835.9c-3.6,0-6.5,5.1-6.5,11.3s2.9,11.3,6.5,11.3
			s6.5-5,6.5-11.3S686.9,835.9,683.3,835.9L683.3,835.9z"/>
	</g>
	<g>
		<path fill-rule="evenodd" clip-rule="evenodd" fill="#FFCC00" d="M604,828.5c-34.7-4.9-50.3-21.8-33.7-59.1c1.4,3.8,4,6.9,6.4,8.3
			c6.7-16.8,17.2-34.9,28.5-49.5c20.2,30.8,39.4,56.5,33.7,76.8c3.1-3.3,4.9-6.5,6.3-9.3C646.4,814.2,635.4,826.5,604,828.5
			L604,828.5z"/>
		<path fill-rule="evenodd" clip-rule="evenodd" fill="#FF6633" d="M604.2,825.3c-19.4-2.7-28.1-12.2-18.8-33
			c0.8,2.2,2.2,3.8,3.6,4.7c3.7-9.4,9.6-17.8,15.9-26c11.3,17.2,22,29.9,18.8,41.2c1.7-1.9,2.7-3.6,3.5-5.2
			C627.9,817.3,621.7,824.2,604.2,825.3L604.2,825.3z"/>
		<path fill-rule="evenodd" clip-rule="evenodd" fill="#FFCC00" d="M602.8,706.9c-3.6-3.7-8-8.7,0.1-20
			C605,691.1,611.3,700.9,602.8,706.9L602.8,706.9z"/>
		<path fill-rule="evenodd" clip-rule="evenodd" fill="#FFCC00" d="M591.2,676c-1.9-1.6-2.5-4.6,0.1-8.2
			C592.4,670.7,594.7,673.5,591.2,676L591.2,676z"/>
	</g>
</g>
<g>
	<g>
		<path fill-rule="evenodd" clip-rule="evenodd" fill="#006166" d="M1382.6,950c78.6-4.5,158.1-3.3,238,2.5
			c-4.7-7.8-13-13.7-27.8-12.6c3.9-13.7-3.7-22.5-10.9-13.6c-1.4-35.9-24-47.1-41.9-24.1c-5.8-6.8-13.8-2-15.6,5.4
			c-6.6-22.2-26-18.4-34.2-2.6c-6.4-4.3-11.5-3.5-13.7,9.5c-1.9-13.8-9.1-23.2-13.9-10.3c-5.1-8.1-13-8.7-13.1,5.1
			c-6.5-12-28.4-13.7-25.7,7.2c-8.5-5.5-16.4,4.1-7.3,17.6c-11.3-9-29.2-5.5-21.6,4.8C1387.9,941.7,1383.6,944.2,1382.6,950
			L1382.6,950z"/>
		<path fill-rule="evenodd" clip-rule="evenodd" fill="#004A59" d="M1430.4,948c48.7-1.4,97.5-0.7,146.7,1.9
			c-1.2-26.6-32.4-34.5-46.9-24.3c-13.5-8-30.9-2.6-36.5,5.3c-1.7-7.4-13.6-11.3-20.6-4c-9.3-7.7-28.5,2.7-25.1,18.9
			C1440.2,945.5,1434.5,946.3,1430.4,948L1430.4,948z"/>
		<path fill-rule="evenodd" clip-rule="evenodd" fill="#11B2BA" d="M1383.6,946.9c3.6-4.3,12.7-6.8,18.9-5
			c-8.3-12.6,10.5-12.6,17.8-1.4c-5.3-12.7-2.6-31.3,5.2-20.4c3.7-22.3,21.5-16.5,25.8-4.9c-0.3-14.9,8.4-16.1,11.7-6.8
			c3.7-6.5,13.2-5.3,11.9,15c1.7-7.7,9.2-21.8,17.7-15.8c12.8-18.2,27.6-11.2,32.2,4.6c6.8-12.1,16-13,16.3,3.1
			c1.4-7.5,7.8-24.9,21.7-24.6c-7.2-1.6-15.5,2.1-22.9,11.6c-5.8-6.8-13.8-2-15.6,5.4c-6.6-22.2-26-18.4-34.2-2.6
			c-6.4-4.3-11.5-3.5-13.7,9.5c-1.9-13.8-9.1-23.2-13.9-10.3c-5.1-8.1-13-8.7-13.1,5.1c-6.5-12-28.4-13.7-25.7,7.2
			c-8.5-5.5-16.4,4.1-7.3,17.6c-11.3-9-29.2-5.5-21.6,4.8C1389.4,941.2,1385.4,943.1,1383.6,946.9L1383.6,946.9z"/>
	</g>
	<g>
		<path fill-rule="evenodd" clip-rule="evenodd" fill="#006166" d="M1750,973.3c-3-0.3-6.3-0.3-9.8,0c5.2-18.3-5-30.1-14.6-18.1
			c-1.9-48.1-32.1-63-55.9-32.3c-7.8-9.1-18.5-2.7-20.9,7.3c-8.9-29.7-34.8-24.6-45.8-3.5c-8.6-5.8-15.3-4.7-18.3,12.7
			c-2.6-18.5-12.1-31.1-18.5-13.8c-6.9-10.8-17.5-11.6-17.5,6.9c-8.7-16.1-38-18.3-34.3,9.6c-11.3-7.3-22,5.5-9.7,23.6
			c-15.1-12-39.1-7.3-28.9,6.5c-6.2,2.3-10.8,4.6-13.6,8h288V973.3z"/>
		<path fill-rule="evenodd" clip-rule="evenodd" fill="#004A59" d="M1718.3,980c-6.1-30.3-43.9-38.7-62-26
			c-18.1-10.7-41.3-3.5-48.9,7c-2.2-9.9-18.1-15.2-27.5-5.3c-12.2-10.2-37.2,3.2-33.7,24.3H1718.3z"/>
		<path fill-rule="evenodd" clip-rule="evenodd" fill="#11B2BA" d="M1463.2,980c5.8-4.1,15.5-6.1,22.5-4.1
			c-11.1-16.8,14.1-16.8,23.8-1.9c-7.1-17-3.5-41.8,6.9-27.2c5-29.8,28.7-22.1,34.5-6.6c-0.3-19.9,11.2-21.6,15.6-9.2
			c4.9-8.7,17.6-7.1,15.9,20c2.3-10.3,12.2-29.1,23.7-21.1c17.1-24.4,36.9-14.9,43,6.1c9.1-16.2,21.5-17.4,21.9,4.1
			c1.8-9.9,10.5-33.3,29-32.9c-9.6-2.1-20.7,2.8-30.6,15.5c-7.8-9.1-18.5-2.7-20.9,7.3c-8.9-29.7-34.8-24.6-45.8-3.5
			c-8.6-5.8-15.3-4.7-18.3,12.7c-2.6-18.5-12.1-31.1-18.5-13.8c-6.9-10.8-17.5-11.6-17.5,6.9c-8.7-16.1-38-18.3-34.3,9.6
			c-11.3-7.3-22,5.5-9.7,23.6c-15.1-12-39.1-7.3-28.9,6.5c-6.2,2.3-10.8,4.6-13.6,8H1463.2z"/>
	</g>
	<g>
		<path fill-rule="evenodd" clip-rule="evenodd" fill="#006166" d="M548.6,916.7c-57.5-3.3-115.5-2.4-174,1.8
			c3.4-5.7,9.5-10,20.3-9.2c-2.8-10,2.7-16.4,8-9.9c1-26.3,17.5-34.4,30.6-17.6c4.2-5,10.1-1.5,11.4,4c4.8-16.2,19-13.4,25-1.9
			c4.7-3.2,8.4-2.6,10,6.9c1.4-10.1,6.6-17,10.2-7.6c3.7-5.9,9.5-6.4,9.6,3.7c4.7-8.8,20.7-10,18.7,5.2c6.2-4,12,3,5.3,12.9
			c8.3-6.6,21.3-4,15.8,3.5C544.7,910.6,547.9,912.4,548.6,916.7L548.6,916.7z"/>
		<path fill-rule="evenodd" clip-rule="evenodd" fill="#004A59" d="M513.7,915.2c-35.5-1-71.3-0.5-107.2,1.4
			c0.9-19.4,23.7-25.2,34.3-17.7c9.9-5.9,22.6-1.9,26.7,3.8c1.2-5.4,9.9-8.3,15-2.9c6.8-5.6,20.8,2,18.3,13.8
			C506.5,913.4,510.7,914,513.7,915.2L513.7,915.2z"/>
		<path fill-rule="evenodd" clip-rule="evenodd" fill="#FFFF66" d="M547.9,914.4c-2.6-3.1-9.3-4.9-13.8-3.6c6.1-9.2-7.7-9.2-13-1
			c3.9-9.3,1.9-22.9-3.8-14.9c-2.7-16.3-15.7-12.1-18.8-3.6c0.2-10.9-6.1-11.8-8.5-5c-2.7-4.8-9.6-3.9-8.7,10.9
			c-1.3-5.6-6.7-15.9-13-11.5c-9.4-13.3-20.2-8.2-23.5,3.4c-5-8.9-11.7-9.5-11.9,2.2c-1-5.4-5.7-18.2-15.9-18
			c5.3-1.2,11.3,1.5,16.7,8.5c4.2-5,10.1-1.5,11.4,4c4.8-16.2,19-13.4,25-1.9c4.7-3.2,8.4-2.6,10,6.9c1.4-10.1,6.6-17,10.2-7.6
			c3.7-5.9,9.5-6.4,9.6,3.7c4.7-8.8,20.7-10,18.7,5.2c6.2-4,12,3,5.3,12.9c8.3-6.6,21.3-4,15.8,3.5
			C543.7,910.2,546.5,911.6,547.9,914.4L547.9,914.4z"/>
	</g>
	<g>
		<path fill-rule="evenodd" clip-rule="evenodd" fill="#006166" d="M129.5,953.9c78.7-4.5,158.1-3.3,238,2.5
			c-4.7-7.8-13-13.7-27.8-12.6c3.9-13.7-3.7-22.5-11-13.6c-1.4-35.9-24-47.1-41.8-24.2c-5.8-6.8-13.9-2-15.6,5.4
			c-6.6-22.2-26-18.4-34.2-2.6c-6.4-4.3-11.5-3.5-13.7,9.5c-1.9-13.8-9.1-23.2-13.9-10.3c-5.1-8.1-13.1-8.7-13.1,5.1
			c-6.5-12-28.4-13.7-25.7,7.2c-8.5-5.5-16.4,4.1-7.2,17.6c-11.3-9-29.3-5.5-21.6,4.8C134.8,945.6,130.4,948,129.5,953.9
			L129.5,953.9z"/>
		<path fill-rule="evenodd" clip-rule="evenodd" fill="#004A59" d="M177.3,951.9c48.6-1.4,97.5-0.7,146.7,1.9
			c-1.2-26.6-32.5-34.5-46.9-24.3c-13.6-8-30.9-2.6-36.5,5.3c-1.7-7.4-13.6-11.3-20.5-4c-9.3-7.7-28.5,2.7-25.1,18.9
			C187.1,949.4,181.4,950.2,177.3,951.9L177.3,951.9z"/>
		<path fill-rule="evenodd" clip-rule="evenodd" fill="#11B2BA" d="M130.5,950.8c3.6-4.3,12.7-6.8,18.9-5
			c-8.3-12.6,10.5-12.6,17.9-1.4c-5.4-12.7-2.7-31.3,5.2-20.4c3.7-22.3,21.5-16.5,25.8-4.9c-0.2-14.9,8.4-16.1,11.7-6.8
			c3.7-6.5,13.2-5.3,11.9,15c1.7-7.7,9.1-21.8,17.7-15.8c12.8-18.2,27.6-11.2,32.2,4.6c6.8-12.1,16.1-13,16.3,3.1
			c1.4-7.5,7.9-24.9,21.7-24.6c-7.2-1.6-15.4,2.1-22.9,11.6c-5.8-6.8-13.9-2-15.6,5.4c-6.6-22.2-26-18.4-34.2-2.6
			c-6.4-4.3-11.5-3.5-13.7,9.5c-1.9-13.8-9.1-23.2-13.9-10.3c-5.1-8.1-13.1-8.7-13.1,5.1c-6.5-12-28.4-13.7-25.7,7.2
			c-8.5-5.5-16.4,4.1-7.2,17.6c-11.3-9-29.3-5.5-21.6,4.8C136.2,945,132.3,947,130.5,950.8L130.5,950.8z"/>
	</g>
</g>
<g>
	<path fill-rule="evenodd" clip-rule="evenodd" fill="#FFFF66" d="M399.1,858.5h81.1C445.4,862.3,415.4,863.3,399.1,858.5
		L399.1,858.5z"/>
	<path fill-rule="evenodd" clip-rule="evenodd" fill="#FFFF66" d="M922,858.5H716.5C804.8,862.3,880.8,863.3,922,858.5L922,858.5z"
		/>
</g>
</svg>
