<?xml version="1.0" encoding="utf-8"?>
<!-- Generator: Adobe Illustrator 16.0.0, SVG Export Plug-In . SVG Version: 6.00 Build 0)  -->
<!DOCTYPE svg PUBLIC "-//W3C//DTD SVG 1.1//EN" "http://www.w3.org/Graphics/SVG/1.1/DTD/svg11.dtd">
<svg version="1.1" xmlns="http://www.w3.org/2000/svg" xmlns:xlink="http://www.w3.org/1999/xlink" x="0px" y="0px" width="1400px"
	 height="1400px" viewBox="0 0 1400 1400" enable-background="new 0 0 1400 1400" xml:space="preserve">
<g id="Layer_3">
	<rect x="-20" y="-20" fill="#BE1E2D" width="1440" height="1440"/>
	<ellipse fill="#A81E2C" cx="700" cy="1209.87" rx="190.295" ry="39.004"/>
	<ellipse fill="#A81E2C" cx="937.239" cy="1167.244" rx="46.944" ry="9.622"/>
	<path fill="#A81E2C" d="M1420-20c0,99.365-8.046,201.095,0.396,300.182c-35.716,14.744-61.982,39.91-89.344,63.298
		c-27.571,23.568-57.791,43.352-94.512,55.917c-60.09,20.562-128.974,22.557-191.314,8.33c-17.786-4.059-35.445-9.448-52.296-15.718
		c-72.601-27.012-128.704-77.949-202.228-104.082c-33.746-11.994-73.484-22.012-109.75-12.106
		c-49.464,13.51-60.811,57.101-99.813,77.913c-31.91,17.026-71.11-1.485-104.44-14.191c-74.27-28.324-154.07-91.951-234.97-95.91
		c-54.17-2.659-106.47-6.416-145.23,24.207C61.84,295.215,16.94,330.87-20,369.838V-20H1420z"/>
</g>
<g id="Layer_1">
	<path fill="#AF7732" d="M1164.53-20c-15.49,44.18-30.99,88.36-46.49,132.54c-38.06,108.47-76.24,216.94-114.73,325.38
		c-7.17,20.2-14.35,40.4-21.55,60.6c-5.569,15.67-11.16,31.34-16.76,47c-4.46,12.49-8.92,24.98-13.39,37.47
		c-0.42,1.16-0.83,2.32-1.25,3.49c-4.5,12.57-9.011,25.15-13.53,37.73c-1.05,2.94-2.11,5.89-3.18,8.84
		c-0.53-0.17-1.04-0.37-1.551-0.56c-1.34-0.5-2.689-1-4.02-1.51c-4.59-1.75-9.3-3.36-14.13-4.82c-1.16-0.35-2.33-0.69-3.5-1.03
		h-0.01c-4.65-1.34-9.41-2.55-14.23-3.63c0.24-0.71,0.47-1.42,0.7-2.14c0.38-1.16,0.77-2.32,1.149-3.48
		c0.311-0.94,0.62-1.88,0.94-2.83c0.47-1.41,0.94-2.83,1.41-4.25c0.939-2.85,1.89-5.7,2.84-8.57c0.47-1.44,0.95-2.88,1.43-4.32
		c0.78-2.37,1.57-4.75,2.37-7.14c1.79-5.38,3.59-10.8,5.4-16.26c0.6-1.82,1.21-3.64,1.819-5.47c0.211-0.66,0.431-1.31,0.65-1.97
		c1.47-4.4,2.95-8.83,4.43-13.29c1.101-3.32,2.221-6.66,3.33-10c0.91-2.7,1.811-5.4,2.71-8.12c0.521-1.56,1.04-3.13,1.57-4.7
		c1-3.01,2.01-6.02,3.021-9.05c1.539-4.6,3.09-9.23,4.64-13.87c0.33-1.02,0.67-2.04,1.02-3.06c1.221-3.63,2.44-7.28,3.66-10.94
		c0.521-1.55,1.05-3.12,1.57-4.69c1.58-4.69,3.16-9.41,4.74-14.14c1.109-3.31,2.22-6.63,3.34-9.96c1.01-3.01,2.02-6.03,3.04-9.05
		c1.6-4.77,3.2-9.56,4.819-14.36c1.021-3.03,2.04-6.06,3.051-9.09c4.989-14.83,10.02-29.78,15.09-44.82
		c1.58-4.69,3.16-9.38,4.74-14.09c1.659-4.9,3.31-9.81,4.97-14.73c2.22-6.55,4.43-13.11,6.649-19.69c1.671-4.93,3.341-9.87,5-14.81
		c1.141-3.38,2.29-6.76,3.431-10.14c2.2-6.5,4.399-13.01,6.6-19.52c1.12-3.3,2.23-6.6,3.351-9.9c1.119-3.3,2.239-6.59,3.35-9.89
		c5.58-16.49,11.17-32.97,16.74-49.39c0.97-2.88,1.95-5.75,2.92-8.62c2.59-7.64,5.18-15.26,7.76-22.87
		c1.32-3.88,2.64-7.75,3.95-11.62c3.43-10.1,6.85-20.17,10.26-30.18c1.23-3.61,2.45-7.21,3.67-10.8c0.771-2.26,1.54-4.52,2.311-6.78
		c1.399-4.14,2.81-8.27,4.21-12.39c11.58-34.03,22.93-67.33,33.89-99.43c2.79-8.19,5.56-16.31,8.3-24.33
		c0.8-2.35,1.601-4.68,2.391-7c1.119-3.27,2.229-6.52,3.329-9.75H1164.53z"/>
	<path fill="#C08F59" d="M1164.53-20c-15.49,44.18-30.99,88.36-46.49,132.54c-38.06,108.47-76.24,216.94-114.73,325.38
		c-7.17,20.2-14.35,40.4-21.55,60.6c-5.569,15.67-11.16,31.34-16.76,47c-4.46,12.49-8.92,24.98-13.39,37.47
		c-0.42,1.16-0.83,2.32-1.25,3.49c-4.5,12.57-9.011,25.15-13.53,37.73c-1.05,2.94-2.11,5.89-3.18,8.84
		c-13.061,36.39-26.17,72.771-39.341,109.141c-16.75,46.279-31.649,109.67-57.869,153.63c0,0-1.261,2.199-3.23,5.229
		c-0.49,0.75-1.02,1.561-1.59,2.4c-0.46,0.67-0.94,1.359-1.43,2.06c-0.25,0.351-0.5,0.7-0.761,1.05
		c-0.26,0.351-0.52,0.71-0.779,1.061c-0.261,0.35-0.53,0.7-0.801,1.05c-0.399,0.521-0.81,1.04-1.229,1.55
		c-0.28,0.34-0.55,0.681-0.83,1.011c-0.42,0.489-0.85,0.979-1.271,1.439c-0.279,0.311-0.569,0.62-0.85,0.91
		c-6.66,6.91-13.29,8.88-12.6-11.92c0.01-0.4,0.029-0.8,0.05-1.22c0.02-0.54,0.05-1.101,0.08-1.681c0.05-0.83,0.109-1.7,0.18-2.59
		c0.04-0.46,0.08-0.92,0.12-1.39c0.06-0.811,0.14-1.65,0.23-2.521c1.659-16.41,36.52-125.83,85.18-272.9
		c0.38-1.16,0.77-2.32,1.149-3.48c0.311-0.94,0.62-1.88,0.94-2.83c0.47-1.41,0.94-2.83,1.41-4.25c0.939-2.85,1.89-5.7,2.84-8.57
		c0.47-1.44,0.95-2.88,1.43-4.32c0.78-2.37,1.57-4.75,2.37-7.14c1.78-5.38,3.58-10.8,5.4-16.26c0.6-1.82,1.21-3.64,1.819-5.47
		c0.211-0.66,0.431-1.31,0.65-1.97c1.47-4.4,2.95-8.83,4.43-13.29c1.101-3.32,2.221-6.66,3.33-10c0.91-2.7,1.811-5.4,2.71-8.12
		c0.521-1.56,1.04-3.13,1.57-4.7c1-3.01,2.01-6.02,3.021-9.05c1.539-4.6,3.09-9.23,4.64-13.87c0.33-1.02,0.67-2.04,1.02-3.06
		c1.221-3.63,2.44-7.28,3.66-10.94c0.521-1.55,1.05-3.12,1.57-4.69c1.58-4.69,3.16-9.41,4.74-14.14c1.109-3.31,2.22-6.63,3.34-9.96
		c1.01-3.01,2.02-6.03,3.04-9.05c1.6-4.77,3.2-9.56,4.819-14.36c1.021-3.03,2.04-6.06,3.051-9.09
		c4.989-14.83,10.02-29.78,15.09-44.82c1.58-4.69,3.16-9.38,4.74-14.09c1.659-4.9,3.31-9.81,4.97-14.73
		c2.22-6.55,4.43-13.11,6.649-19.69c1.671-4.93,3.341-9.87,5-14.81c1.141-3.38,2.29-6.76,3.431-10.14c2.2-6.5,4.399-13.01,6.6-19.52
		c1.12-3.3,2.23-6.6,3.351-9.9c1.119-3.3,2.239-6.59,3.35-9.89c5.58-16.49,11.17-32.97,16.74-49.39c0.97-2.88,1.95-5.75,2.92-8.62
		c2.59-7.64,5.18-15.26,7.76-22.87c1.32-3.88,2.64-7.75,3.95-11.62c3.43-10.1,6.85-20.17,10.26-30.18c1.23-3.61,2.45-7.21,3.67-10.8
		c0.771-2.26,1.54-4.52,2.311-6.78c1.399-4.14,2.81-8.27,4.21-12.39c11.58-34.03,22.93-67.33,33.89-99.43
		c2.79-8.19,5.56-16.31,8.3-24.33c0.8-2.35,1.601-4.68,2.391-7c1.119-3.27,2.229-6.52,3.329-9.75H1164.53z"/>
	<path fill="#B57E48" d="M1142.46-20h22.07c-15.49,44.18-30.99,88.36-46.49,132.54c-38.06,108.47-76.24,216.94-114.73,325.38
		c-7.17,20.2-14.35,40.4-21.55,60.6c-5.569,15.67-11.16,31.34-16.76,47c-4.46,12.49-8.92,24.98-13.39,37.47
		c-0.42,1.16-0.83,2.32-1.25,3.49c-4.5,12.57-9.011,25.15-13.53,37.73c-1.05,2.94-2.11,5.89-3.18,8.84
		c-13.061,36.39-26.17,72.771-39.341,109.141c-16.75,46.279-31.649,109.67-57.869,153.63c0,0-1.261,2.199-3.23,5.229
		c-0.49,0.75-1.02,1.561-1.59,2.4c-0.46,0.67-0.94,1.359-1.43,2.06c-0.25,0.351-0.5,0.7-0.761,1.05
		c-0.26,0.351-0.52,0.71-0.779,1.061c-0.261,0.35-0.53,0.7-0.801,1.05c-0.399,0.521-0.81,1.04-1.229,1.55
		c-0.28,0.34-0.55,0.681-0.83,1.011c-0.42,0.489-0.85,0.979-1.271,1.439c-0.279,0.311-0.569,0.62-0.85,0.91
		c-6.66,6.91-13.29,8.88-12.6-11.92c0.01-0.4,0.029-0.8,0.05-1.22c0.02-0.54,0.05-1.101,0.08-1.681c0.05-0.83,0.109-1.7,0.18-2.59
		c0.04-0.46,0.08-0.92,0.12-1.39c3.97-5.44,6.98-10.7,6.98-10.7c26.22-43.97,41.119-107.35,57.869-153.63
		c12.58-34.76,25.12-69.52,37.601-104.29c62.88-175.02,124.67-350.19,186.14-525.36C1114.21,60.53,1128.34,20.27,1142.46-20z"/>
</g>
<g id="Layer_2">
	<path fill="#B57E48" d="M664.08,920.66c-0.01,0.22-0.01,0.45-0.02,0.68c-0.01,0.65-0.03,1.32-0.06,2.01
		c-0.02,0.48-0.04,0.96-0.06,1.45c-0.02,0.37-0.05,0.74-0.07,1.12v0.04c-0.14,2.06-0.34,4.19-0.65,6.25
		c-0.06,0.43-0.13,0.85-0.2,1.26c-0.17,0.99-0.37,1.96-0.6,2.88c-0.06,0.261-0.13,0.511-0.2,0.771c-0.15,0.57-0.32,1.12-0.5,1.64
		c-0.08,0.24-0.17,0.48-0.26,0.71c-0.07,0.19-0.15,0.37-0.22,0.55c-0.07,0.19-0.15,0.37-0.23,0.551c-0.02,0.04-0.04,0.08-0.06,0.12
		c-0.09,0.18-0.18,0.359-0.27,0.54c-0.19,0.369-0.4,0.71-0.61,1.029c-0.11,0.17-0.22,0.32-0.34,0.471
		c-0.11,0.149-0.23,0.289-0.35,0.42c-0.01,0.02-0.03,0.04-0.04,0.05c-0.11,0.12-0.22,0.229-0.33,0.33
		c-0.3,0.29-0.62,0.529-0.96,0.729c-0.2,0.12-0.42,0.23-0.64,0.32c-0.33,0.12-0.67,0.2-1.03,0.24c-0.16,0.02-0.32,0.029-0.49,0.029
		c-1.9,0-4.24-1.189-7.11-4.02c-0.95-0.94-1.97-2.07-3.05-3.39c-0.16-0.2-0.32-0.4-0.49-0.61c-0.33-0.42-0.66-0.86-1-1.311
		c-0.34-0.449-0.69-0.93-1.04-1.42c-0.31-0.43-0.62-0.869-0.94-1.33c-0.96-1.369-1.94-2.88-2.98-4.539
		c-0.8-1.261-1.61-2.601-2.45-4.03c-0.05-0.09-0.11-0.181-0.15-0.28c-0.08-0.14-0.16-0.29-0.25-0.45c-0.16-0.3-0.32-0.609-0.48-0.96
		c-0.01-0.029-0.03-0.06-0.05-0.09c-0.09-0.189-0.18-0.38-0.28-0.58C611.13,870.38,459.77,341.57,357.46-20h59.9
		c8.83,32.32,17.64,64.64,26.45,96.96c3.8,13.95,7.61,27.9,11.4,41.86c7.6,27.89,15.19,55.79,22.77,83.7v0.01
		c7.57,27.91,15.14,55.82,22.69,83.74v0.01c7.55,27.92,15.09,55.85,22.61,83.79c11.28,41.9,22.52,83.82,33.7,125.77
		c11.2,41.95,22.33,83.91,33.41,125.9c7.39,27.99,14.75,56,22.08,84.01c3.67,14.01,7.33,28.02,10.98,42.03
		c7.05,27.06,17.95,58.229,26.68,89.55c0.95,3.4,1.87,6.79,2.75,10.189c0.1,0.37,0.2,0.74,0.29,1.11
		c0.42,1.601,0.83,3.21,1.23,4.811c0.41,1.619,0.8,3.229,1.18,4.84c2.61,10.87,4.79,21.66,6.29,32.189
		c0.24,1.721,0.47,3.44,0.68,5.15c0.1,0.86,0.2,1.72,0.3,2.58c0.29,2.55,0.53,5.09,0.71,7.609c0.06,0.841,0.12,1.671,0.17,2.511
		s0.09,1.67,0.14,2.51c0.05,0.82,0.08,1.65,0.11,2.47c0,0,0.01,0.12,0.01,0.351C664.03,914.56,664.13,917.24,664.08,920.66z"/>
	<g>
		<path fill="#AF7732" d="M893.46,659.94c1.067,0.293,2.134,0.587,3.19,0.903c-8.149,22.628-16.321,45.258-24.507,67.875
			c-18.829,52.035-35.584,123.299-65.06,172.731c0,0-34.202,59.599-27.776-3.999c1.628-16.108,31.691-111.866,75.684-245.895
			c4.421,0.68,8.841,1.466,13.262,2.345C876.671,655.578,885.076,657.584,893.46,659.94z"/>
		<path fill="#F9F0E5" d="M1006.747,964.554c3.671,5.534,5.969,11.983,6.414,18.983c1.465,22.453-16.604,41.917-40.346,43.451
			c-2.662,0.178-5.265,0.106-7.821-0.163c-2.521,36.605-32.442,66.668-70.889,69.164c-28.479,1.854-54.274-11.899-68.685-33.778
			c-7.527,18.338-24.166,31.622-44.272,32.924c-17.167,1.113-32.96-6.742-43.337-19.769c-6.037,13.848-18.83,23.802-34.188,24.81
			c-14.575,0.938-27.871-6.39-35.855-18.196c-4.819,2.626-10.212,4.268-15.97,4.644c-5.897,0.387-11.584-0.6-16.79-2.674
			c-6.401,5.732-14.539,9.416-23.568,10.002c-18.923,1.23-35.714-11.504-41.459-29.853c-7.55,3.471-15.969,5.675-24.938,6.262
			c-35.093,2.273-65.18-21.036-67.196-52.06c-0.199-3.072-0.105-6.097,0.246-9.063c-23.918-11.186-41.096-34.32-42.89-62.049
			c-0.211-3.236-0.199-6.449,0.012-9.604c1.324-20.037,10.869-38.094,25.524-50.805c-4.104-7.314-6.718-15.734-7.305-24.798
			c-1.406-21.655,9.041-41.153,25.443-51.39c-2.298-5.676-3.763-11.843-4.185-18.338c-1.994-30.637,19.71-56.982,48.47-58.847
			c14.997-0.974,28.938,4.912,39.138,15.101c19.663-11.771,42.105-19.11,66.2-20.67c33.626-2.193,65.495,7.199,92.158,24.927
			c24.152-21.022,54.533-34.46,88.159-36.64c52.726-3.425,101.116,21.585,131.905,62.599c3.611-4.491,7.915-8.36,12.733-11.421
			c1.441-0.926,2.942-1.771,4.479-2.544c5.77-2.884,12.147-4.677,18.914-5.112c28.748-1.876,53.675,21.445,55.669,52.083
			c1.255,19.274-6.884,36.851-20.262,47.696c4.902,1.842,9.498,4.21,13.672,7.06c13.895,9.427,23.215,23.952,24.307,40.755
			C1051.923,933.213,1033.408,956.358,1006.747,964.554z"/>
		<path fill="#E2DED7" d="M1012.257,859.428c4.902,1.842,9.498,4.21,13.672,7.06c-2.346,0.608-4.727,1.148-7.13,1.617
			c-31.96,6.297-67.324,4.351-99.543,0.774c-232.518-25.795-197.507-16.414-272.511-25.795c-75.016-9.38-60.008-18.76-95.019-2.345
			c-25.115,11.771-75.931,70.596-116.51,96.847c1.324-20.037,10.869-38.094,25.524-50.805c-4.104-7.314-6.718-15.734-7.305-24.798
			c-1.406-21.655,9.041-41.153,25.443-51.39c-2.298-5.676-3.763-11.843-4.185-18.338c-1.994-30.637,19.71-56.982,48.47-58.847
			c14.997-0.974,28.938,4.912,39.138,15.101c19.663-11.771,42.105-19.11,66.2-20.67c33.626-2.193,65.495,7.199,92.158,24.927
			c24.152-21.022,54.533-34.46,88.159-36.64c52.726-3.425,101.116,21.585,131.905,62.599c3.611-4.491,7.915-8.36,12.733-11.421
			c0.316,0.4,0.645,0.798,0.96,1.196c1.115-1.302,2.287-2.544,3.519-3.74c5.77-2.884,12.147-4.677,18.914-5.112
			c28.748-1.876,53.675,21.445,55.669,52.083C1033.773,831.006,1025.635,848.582,1012.257,859.428z"/>
		<path fill="#E16D26" d="M1036.798,744.688c-0.012,1.219-0.047,2.438-0.117,3.657c-0.363,6.707-1.606,12.604-3.599,17.787
			c-11.913-19.58-30.311-36.652-46.209-48.131c-9.684-6.988-20.072-13.05-30.86-18.373c-8.324-4.115-16.896-7.785-25.584-11.115
			c-10.505-4.021-21.187-7.526-31.821-10.693c-1.711-0.516-3.436-1.008-5.147-1.477c-8.384-2.356-16.789-4.361-25.207-6.039
			c-14.189-2.813-28.41-4.689-42.645-5.687c-9.766-0.681-19.534-0.938-29.288-0.785c-14.118,0.188-28.211,1.231-42.222,3.072
			l-26.99,4.502c-15.384,3.119-30.638,7.164-45.693,12.064c-7.457,2.416-14.855,5.042-22.207,7.88
			c-9.567,3.67-19.053,7.691-28.421,12.029c-29.863,13.823-58.954,29.559-85.838,48.6c-5.428,3.857-24.071,23.686-31.012,23.686
			h-60.97c-20.108,0-38.681,6.25-54.639,15.558c-0.093-0.082-0.188-0.163-0.293-0.235c-4.291-3.258-8.993-5.181-13.905-6.389
			l-0.023-0.012c-17.399-4.256-37.484,0.375-51.414-13.719c-12.218-12.334-10.716-24,2.522-34.095
			c27.436-20.905,70.759-21.491,103.39-25.936c23.942-3.249,48.178-4.843,72.414-5.887c23.085-0.985,21.292-10.856,36.651-24.575
			c24.904-22.23,58.601-40.451,91.76-53.161l20.788-7.27c3.657-1.16,7.27-2.251,10.845-3.259c6.12-1.724,12.417-3.33,18.9-4.795
			h0.012c7.446-1.689,15.102-3.201,22.923-4.526c10.6-1.794,21.491-3.248,32.56-4.314h0.011c8.043-0.786,16.169-1.373,24.329-1.735
			c15.396-0.704,30.908-0.656,46.22,0.234h0.014c8.534,0.492,17,1.232,25.349,2.251c16.978,2.076,33.439,5.265,48.904,9.709h0.012
			c6.813,1.945,13.425,4.139,19.815,6.577c1.5,0.575,3.013,1.138,4.525,1.7c15.97,5.934,32.432,11.186,48.061,17.729
			C1002.843,656.294,1037.291,700.345,1036.798,744.688z"/>
		<path fill="#D36328" d="M1036.798,744.688c-0.012,1.219-0.047,2.438-0.117,3.657c-0.363,6.707-1.606,12.604-3.599,17.787
			c-11.913-19.58-30.311-36.652-46.209-48.131c-9.684-6.988-20.072-13.05-30.86-18.373c-8.324-4.115-16.896-7.785-25.584-11.115
			c-10.505-4.021-21.187-7.526-31.821-10.693c-1.711-0.516-3.436-1.008-5.147-1.477c-8.384-2.356-16.789-4.361-25.207-6.039
			c-14.189-2.813-28.41-4.689-42.645-5.687c-9.766-0.681-19.534-0.938-29.288-0.785c-14.118,0.188-28.211,1.231-42.222,3.072
			l-26.99,4.502c-15.384,3.119-30.638,7.164-45.693,12.064c-7.457,2.416-14.855,5.042-22.207,7.88
			c-9.567,3.67-19.053,7.691-28.421,12.029c-29.863,13.823-58.954,29.559-85.838,48.6c-5.428,3.857-24.071,23.686-31.012,23.686
			h-60.97c-20.108,0-38.681,6.25-54.639,15.558l-14.199-6.624l-0.023-0.012c19.276-16.133,44.836-28.844,73.516-28.844h60.97
			c6.941,0,25.583-19.826,31.012-23.684c26.885-19.042,55.975-34.776,85.838-48.601c9.369-4.339,18.854-8.359,28.421-12.03
			c7.352-2.836,14.75-5.463,22.207-7.879c15.055-4.9,30.309-8.945,45.693-12.064l26.99-4.502
			c14.011-1.841,28.105-2.885,42.223-3.072c9.753-0.152,19.521,0.105,29.287,0.786c14.234,0.996,28.458,2.872,42.645,5.687
			c8.418,1.676,16.825,3.682,25.208,6.039c1.712,0.469,3.435,0.961,5.146,1.477c10.635,3.166,21.317,6.672,31.822,10.693
			c8.689,3.329,17.26,6.999,25.583,11.114c10.787,5.323,21.177,11.385,30.86,18.374
			C1007.016,709.255,1024.861,725.741,1036.798,744.688z"/>
		<path fill="#E2DED7" d="M957.912,1053.453c-11.421,23.638-35.268,40.685-63.807,42.536c-28.479,1.854-54.274-11.899-68.685-33.778
			c-7.527,18.338-24.166,31.622-44.272,32.924c-17.167,1.113-32.96-6.742-43.337-19.769c-6.037,13.848-18.83,23.802-34.188,24.81
			c-14.575,0.938-27.871-6.39-35.855-18.196c-4.819,2.626-10.212,4.268-15.97,4.644c-5.897,0.387-11.584-0.6-16.79-2.674
			c-6.401,5.732-14.539,9.416-23.568,10.002c-18.923,1.23-35.714-11.504-41.459-29.853c-7.55,3.471-15.969,5.675-24.938,6.262
			c-35.093,2.273-65.18-21.036-67.196-52.06c-0.199-3.072-0.105-6.097,0.246-9.063c-23.918-11.186-41.096-34.32-42.89-62.049
			c-1.547-23.802,8.571-45.704,25.537-60.408c-4.104-7.314-6.718-15.734-7.305-24.798c-1.372-21.175,8.583-40.275,24.353-50.686
			c-2.943,7.62-4.338,16.074-3.764,24.88c0.586,9.052,3.189,17.471,7.305,24.787c-16.966,14.702-27.084,36.604-25.549,60.405
			c1.806,27.729,18.983,50.863,42.89,62.061c-0.34,2.955-0.433,5.979-0.234,9.052c2.017,31.024,32.09,54.333,67.184,52.058
			c8.969-0.586,17.399-2.789,24.938-6.26c5.757,18.351,22.547,31.082,41.472,29.852c9.027-0.586,17.153-4.268,23.555-10.001
			c5.218,2.075,10.904,3.061,16.802,2.673c5.757-0.376,11.15-2.016,15.969-4.644c7.973,11.808,21.28,19.137,35.844,18.197
			c15.371-0.996,28.15-10.951,34.2-24.809c10.365,13.024,26.172,20.881,43.324,19.768c20.109-1.302,36.758-14.585,44.272-32.925
			c14.411,21.879,40.206,35.633,68.687,33.792C931.155,1069.105,946.058,1062.985,957.912,1053.453z"/>
		<ellipse opacity="0.6" fill="#F9AA76" cx="852.956" cy="945.091" rx="18.591" ry="15.442"/>
		<ellipse opacity="0.6" fill="#F9AA76" cx="998.024" cy="929.647" rx="18.591" ry="15.443"/>
		<path fill="#915122" d="M885.896,901.616c-11.532-4.202-23.437-6.63-35.604-8.067c-7.501-0.885-7.414,10.85,0,11.727
			c8.465,0.998,16.804,2.701,24.945,5.147c-6.399,7.532-16.118,12.205-23.976,17.973c-6.026,4.424-0.188,14.605,5.917,10.124
			c11.443-8.4,25.727-14.903,32.221-28.292C891.141,906.638,889.629,902.977,885.896,901.616z"/>
		<path fill="#915122" d="M1002.015,915.343c-9.48-2.27-20.994-2.689-29.965-7.338c6.783-5.61,14.085-10.49,21.781-14.852
			c6.577-3.726,0.669-13.857-5.918-10.124c-10.611,6.013-20.573,13.059-29.519,21.366c-2.231,2.07-2.34,6.235,0,8.289
			c11.372,9.991,26.438,10.597,40.504,13.964C1006.248,928.407,1009.367,917.103,1002.015,915.343z"/>
		<g>
			<path fill="#915122" d="M865.985,942.932c-2.177,1.626-4.427,3.173-6.369,5.082c-2.303,2.263,1.234,5.796,3.535,3.535
				c1.645-1.615,3.516-2.924,5.357-4.299c1.09-0.814,1.645-2.146,0.896-3.421C868.775,942.753,867.08,942.115,865.985,942.932
				L865.985,942.932z"/>
		</g>
		<g>
			<path fill="#915122" d="M992.961,933.873c2.932,0.586,5.863,1.172,8.794,1.759c3.148,0.629,4.49-4.19,1.33-4.822
				c-2.932-0.586-5.863-1.172-8.794-1.759C991.143,928.421,989.801,933.24,992.961,933.873L992.961,933.873z"/>
		</g>
		<path fill="#915122" d="M944.934,938.173c-0.505,16.013-11.459,31.457-24.238,24.005c-8.771-5.112-21.158-28.017-8.091-33.292
			c5.297-2.139,17.27-3.02,22.705-3.512C942.464,924.727,945.223,929,944.934,938.173z"/>
		
			<ellipse transform="matrix(0.8701 0.4929 -0.4929 0.8701 528.506 -138.5541)" fill="#E5E0DA" cx="527.07" cy="933.222" rx="6.645" ry="12.781"/>
		
			<ellipse transform="matrix(-0.7144 0.6997 -0.6997 -0.7144 1910.813 1254.6049)" fill="#E5E0DA" cx="699.389" cy="1017.227" rx="6.645" ry="12.782"/>
		
			<ellipse transform="matrix(-0.7144 0.6997 -0.6997 -0.7144 1670.2015 1060.4642)" fill="#E5E0DA" cx="618.7" cy="871.057" rx="6.645" ry="12.782"/>
		
			<ellipse transform="matrix(-0.7145 0.6997 -0.6997 -0.7145 2240.3152 1217.2664)" fill="#E5E0DA" cx="871.769" cy="1065.779" rx="6.645" ry="12.783"/>
		
			<ellipse transform="matrix(0.0355 0.9994 -0.9994 0.0355 1694.9486 108.4725)" fill="#E5E0DA" cx="791.278" cy="932.34" rx="6.645" ry="12.783"/>
		
			<ellipse transform="matrix(-0.5172 0.8558 -0.8558 -0.5172 2244.2839 455.6615)" fill="#E5E0DA" cx="993.627" cy="860.807" rx="6.645" ry="12.783"/>
		<path fill="#F58120" d="M1044.606,807.957c-5.862,29.076-29.91,44.905-57.429,50.675c-29.981,6.296-63.149,4.349-93.365,0.773
			C675.741,833.61,708.57,842.989,638.22,833.61c-70.349-9.38-56.279-18.76-89.109-2.346
			c-32.83,16.416-112.56,124.285-147.734,107.869c-20.249-17.997,12.37-65.038-4.314-71.886c-4.867-1.993-15.947,1.067-21.458,0.846
			c-11.01-0.471-34.319-1.971-32.854-18.069c2.345-25.794,49.245-83.246,110.215-83.246h60.97c6.941,0,25.584-19.827,31.012-23.685
			c26.885-19.042,55.975-34.777,85.838-48.6c9.368-4.34,18.854-8.36,28.421-12.03c7.352-2.837,14.75-5.464,22.207-7.88
			c15.056-4.9,30.31-8.945,45.693-12.064l26.99-4.502c14.011-1.842,28.104-2.885,42.222-3.072
			c9.754-0.152,19.522,0.105,29.288,0.785c14.234,0.996,28.455,2.873,42.645,5.688c8.418,1.676,16.823,3.682,25.207,6.038
			c1.712,0.468,3.437,0.962,5.147,1.478c10.635,3.165,21.316,6.671,31.821,10.693c8.688,3.33,17.26,6.999,25.584,11.114
			c10.788,5.323,21.177,11.386,30.86,18.373C1015.622,729.856,1052.486,768.9,1044.606,807.957z"/>
		<path fill="#E16D26" d="M1042.941,814.405c-7.902,24.996-30.354,38.902-55.764,44.227c-29.981,6.296-63.149,4.349-93.365,0.773
			C675.741,833.61,708.57,842.989,638.22,833.61c-70.349-9.38-56.279-18.76-89.109-2.346
			c-32.83,16.416-112.56,124.285-147.734,107.869c-5.324-4.736-6.988-11.467-6.859-18.958
			c37.555,10.341,116.769-92.804,149.868-108.832c33.897-16.414,19.37-7.035,92.005,2.345c72.648,9.38,38.751,0,263.928,25.796
			c31.2,3.576,65.449,5.522,96.415-0.774C1014.932,835.017,1031.663,827.195,1042.941,814.405z"/>
		<path fill="#F58120" d="M1044.606,807.957c-0.445,2.214-0.996,4.36-1.652,6.436l-0.013,0.013
			c-11.278,12.79-28.01,20.611-46.207,24.305c-30.966,6.297-65.215,4.351-96.415,0.774
			c-225.177-25.796-191.28-16.416-263.928-25.796c-72.635-9.38-58.108-18.759-92.005-2.345
			c-33.099,16.028-112.313,119.173-149.868,108.832c0.352-21.001,14.844-47.886,2.545-52.928c-1.478-0.609-3.542-0.75-5.84-0.655
			c-5.265,0.222-11.784,1.653-15.618,1.501c-11.01-0.471-34.319-1.971-32.854-18.069c0.141-1.548,0.446-3.2,0.892-4.959
			c7.129-27.519,52.012-78.287,109.323-78.287h60.97c6.941,0,25.584-19.827,31.012-23.685c26.885-19.042,55.975-34.777,85.838-48.6
			c9.368-4.34,18.854-8.36,28.421-12.03c7.352-2.837,14.75-5.464,22.207-7.88c15.056-4.9,30.31-8.945,45.693-12.064l26.99-4.502
			c14.011-1.842,28.104-2.885,42.222-3.072c9.754-0.152,19.522,0.105,29.288,0.785c14.234,0.996,28.455,2.873,42.645,5.688
			c8.418,1.676,16.823,3.682,25.207,6.038c1.712,0.468,3.437,0.962,5.147,1.478c10.635,3.165,21.316,6.671,31.821,10.693
			c8.688,3.33,17.26,6.999,25.584,11.114c10.788,5.323,21.177,11.386,30.86,18.373
			C1015.622,729.856,1052.486,768.9,1044.606,807.957z"/>
		<g>
			<path fill="#F1BEAA" d="M950.104,769.322c-2.368,5.933-7.737,10.024-14.422,8.184c-5.64-1.547-10.564-8.477-8.185-14.422
				c9.275-23.215,8.759-51.401,4.397-75.977c-0.446-2.486-0.927-4.983-1.466-7.48c8.688,3.33,17.26,6.999,25.584,11.114
				C959.555,716.654,959.766,745.168,950.104,769.322z"/>
		</g>
		<g>
			<path fill="#F1BEAA" d="M892.629,742.859c-1.935,6.086-6.987,10.563-13.79,9.227c-5.743-1.137-11.162-7.691-9.226-13.787
				c7.562-23.838,4.993-51.907-1.161-76.107c-0.071-0.258-0.13-0.516-0.199-0.773c8.418,1.676,16.823,3.682,25.207,6.038
				C898.373,692.137,900.143,719.151,892.629,742.859z"/>
		</g>
		<g>
			<path fill="#F1BEAA" d="M843.583,733.678c0.07,15.125-23.38,15.115-23.45,0c-0.117-26.908-5.452-57.873-23.813-78.732
				c9.754-0.152,19.522,0.105,29.288,0.785C838.799,678.994,843.466,707.872,843.583,733.678z"/>
		</g>
		<g>
			<path fill="#F1BEAA" d="M771.475,731.92c-0.657,6.354-4.83,11.725-11.725,11.725c-5.888,0-12.383-5.358-11.726-11.725
				c2.661-25.644-2.662-51.227-20.916-69.4l26.99-4.502C768.942,679.04,774.147,706.16,771.475,731.92z"/>
		</g>
		<g>
			<path fill="#F1BEAA" d="M684.135,736.609c-6.847,0-11.127-5.358-11.725-11.725c-1.395-14.867-6.46-29.125-13.202-42.421
				c7.352-2.837,14.75-5.464,22.207-7.88c7.563,15.842,12.78,32.643,14.445,50.301C696.458,731.264,690.068,736.609,684.135,736.609
				z"/>
		</g>
		<g>
			<path fill="#EAB3A0" d="M918.106,640.465c0.235,11.35-17.353,11.326-17.588,0c-0.222-10.06-4.221-19.169-10.224-26.955
				c6.813,1.945,13.425,4.139,19.815,6.577c1.5,0.575,3.013,1.138,4.525,1.7C916.746,627.708,917.966,633.958,918.106,640.465z"/>
		</g>
		<g>
			<path fill="#EAB3A0" d="M816.017,601.55h0.014c0.632,0.95,1.512,1.806,2.66,2.544c5.734,3.67,9.532,10.224,9.72,17.037
				c0.317,11.314,17.904,11.337,17.587,0c-0.174-6.168-1.805-12.065-4.618-17.33L816.017,601.55z"/>
		</g>
		<g>
			<path fill="#EAB3A0" d="M774.476,629.607c-5.076,1.396-8.969-1.723-10.821-6.144c-3.024-7.222-8.725-13.495-15.302-17.611
				c-1.278-0.796-2.227-1.758-2.885-2.801c8.043-0.786,16.169-1.373,24.329-1.735c4.503,5.1,8.091,10.986,10.813,17.47
				C782.473,623.218,778.649,628.459,774.476,629.607z"/>
		</g>
		<g>
			<path fill="#EAB3A0" d="M722.054,637.511c-3.786,2.216-10.084,1.231-12.029-3.154c-4.362-9.779-10.799-17.294-20.05-22.464
				c7.446-1.689,15.102-3.201,22.923-4.526c5.123,5.217,9.297,11.338,12.311,18.115
				C727.155,629.854,726.522,634.896,722.054,637.511z"/>
		</g>
		<g>
			<path fill="#EAB3A0" d="M660.217,619.946c5.522,4.35,10.106,9.767,13.987,16.087c5.957,9.696-9.262,18.525-15.183,8.876
				c-3.811-6.203-8.958-12.405-15.852-15.302c-1.418-0.598-2.697-1.406-3.74-2.392L660.217,619.946z"/>
		</g>
		<circle fill="#E5E0DA" cx="706.726" cy="897.228" r="3.727"/>
		<ellipse fill="#E5E0DA" cx="689.262" cy="912.936" rx="0" ry="1.27"/>
		<circle fill="#E5E0DA" cx="669.546" cy="924.97" r="5.454"/>
		<circle fill="#E5E0DA" cx="717.796" cy="941.501" r="8.28"/>
		<circle fill="#E5E0DA" cx="549.365" cy="874.635" r="3.032"/>
		<circle fill="#E5E0DA" cx="581.967" cy="998.635" r="4.301"/>
		<circle fill="#E5E0DA" cx="592.575" cy="931.277" r="6.308"/>
		<circle fill="#E5E0DA" cx="874.338" cy="1024.904" r="2.57"/>
		<circle fill="#E5E0DA" cx="897.961" cy="1030.002" r="7.667"/>
		<circle fill="#E5E0DA" cx="886.067" cy="1002.806" r="4.171"/>
		<circle fill="#E5E0DA" cx="806.327" cy="879.941" r="2.275"/>
		<ellipse fill="#E5E0DA" cx="984.577" cy="994.334" rx="2.421" ry="0"/>
	</g>
	<path fill="#A0692B" d="M661.72,938.76c-0.08,0.24-0.17,0.48-0.26,0.71c-0.07,0.19-0.15,0.37-0.22,0.55
		c-0.07,0.19-0.15,0.37-0.23,0.551c-0.02,0.04-0.04,0.08-0.06,0.12c-0.09,0.18-0.18,0.359-0.27,0.54
		c-0.19,0.369-0.4,0.71-0.61,1.029c-0.11,0.17-0.22,0.32-0.34,0.471c-0.11,0.149-0.23,0.289-0.35,0.42
		c-0.01,0.02-0.03,0.04-0.04,0.05c-0.11,0.12-0.22,0.229-0.33,0.33c-0.3,0.29-0.62,0.529-0.96,0.729c-0.2,0.12-0.42,0.23-0.64,0.32
		c-0.33,0.12-0.67,0.2-1.03,0.24c-0.16,0.02-0.32,0.029-0.49,0.029c-1.9,0-4.24-1.189-7.11-4.02c-0.95-0.94-1.97-2.07-3.05-3.39
		c-0.16-0.2-0.32-0.4-0.49-0.61c-0.33-0.42-0.66-0.86-1-1.311c-0.34-0.449-0.69-0.93-1.04-1.42c-1.23-1.71-2.53-3.659-3.92-5.869
		c-0.78-1.261-1.6-2.601-2.44-4.03c-0.05-0.09-0.11-0.181-0.16-0.28c-0.08-0.14-0.16-0.29-0.25-0.45
		c-0.15-0.29-0.31-0.609-0.48-0.96c-0.01-0.029-0.03-0.06-0.05-0.09C613.73,876.44,461.28,344.74,357.77-20h14.56
		c104.2,368.25,259.28,909.98,279.38,944.2C655.57,930.77,658.87,935.5,661.72,938.76z"/>
	<path fill="#C08F59" d="M663.87,925.92v0.04c-0.29,4.41-0.9,9.17-2.15,12.8c-2.85-3.26-6.15-7.99-10.01-14.56
		C631.61,889.98,476.53,348.25,372.33-20h45.03c8.83,32.32,17.64,64.64,26.45,96.96c3.8,13.95,7.61,27.9,11.4,41.86
		c7.61,27.89,15.19,55.79,22.77,83.7v0.01c7.58,27.91,15.14,55.82,22.69,83.74v0.01c7.55,27.92,15.09,55.85,22.61,83.79
		c11.28,41.9,22.52,83.82,33.7,125.77c11.2,41.95,22.33,83.91,33.41,125.9c7.39,27.99,14.75,56,22.08,84.01
		c3.67,14.01,7.33,28.02,10.98,42.03c7.05,27.06,17.95,58.229,26.68,89.55c0.95,3.4,1.87,6.79,2.75,10.189
		c0.1,0.37,0.2,0.74,0.29,1.11c0.42,1.601,0.83,3.21,1.23,4.811c0.41,1.619,0.8,3.229,1.18,4.84c2.61,10.87,4.79,21.66,6.29,32.189
		c0.24,1.721,0.47,3.44,0.68,5.15c0.1,0.86,0.2,1.72,0.3,2.58c0.37,3.399,0.67,6.78,0.88,10.12c0.05,0.84,0.09,1.67,0.14,2.51
		c0.04,0.83,0.07,1.65,0.1,2.479C663.97,913.31,664.3,919.22,663.87,925.92z"/>
	<path fill="#F9F0E5" d="M1065.982,855.926c4.412-0.581,5.316-10.879,6.553-14.009c2.898-7.336,8.354-14.304,17.036-13.833
		c10.132,0.551,15.296,11.728,8.209,19.125C1090.248,855.07,1076.001,854.605,1065.982,855.926z"/>
	<path fill="#F9F0E5" d="M415.251,991.35c-3.905,2.074-10.574-5.734-13.38-7.555c-6.575-4.263-15.007-6.753-21.758-1.366
		c-7.879,6.288-5.613,18.308,4.387,20.205C395.126,1004.65,406.385,996.06,415.251,991.35z"/>
</g>
</svg>
